<svg width="591" height="701" viewBox="0 0 591 701" fill="none" xmlns="http://www.w3.org/2000/svg">
<path d="M292.345 1.0239C292.52 0.701109 292.858 0.5 293.225 0.5H588.63C590.148 0.5 591.113 2.1254 590.385 3.45816L518.25 135.625L480.033 202.823C478.846 204.91 477.175 206.682 475.161 207.99L458.655 218.702C456.584 220.047 454.876 221.882 453.684 224.044L279.54 540.019C279.205 540.629 279.21 541.369 279.554 541.973L369.15 699.506C369.529 700.172 369.048 701 368.281 701H93.5754C93.2192 701 92.8899 700.81 92.7108 700.503L0.563991 541.97C0.213688 541.368 0.202455 540.626 0.534339 540.013L292.345 1.0239Z" fill="#FFB340"/>
</svg>
