<svg width="384" height="274" viewBox="0 0 384 274" fill="none" xmlns="http://www.w3.org/2000/svg">
<path d="M8 0.377441H374.768H378.768C381.529 0.377441 383.768 2.61602 383.768 5.37744V269C383.768 271.761 381.529 274 378.768 274H350.863C349.09 274 347.449 273.06 346.551 271.53L331.898 246.561C330.103 243.502 326.821 241.622 323.274 241.622H61.5769C58.1103 241.622 54.891 243.418 53.0692 246.367L38.9308 269.255C37.109 272.204 33.8897 274 30.4231 274H5.23047C2.46905 274 0.230469 271.761 0.230469 269V5.37744C0.230469 2.61602 2.46905 0.377441 5.23047 0.377441H8Z" fill="#FFBD3E" fill-opacity="0.79" style="mix-blend-mode:multiply"/>
<path d="M8 0.377441H374.768H378.768C381.529 0.377441 383.768 2.61602 383.768 5.37744V269C383.768 271.761 381.529 274 378.768 274H350.863C349.09 274 347.449 273.06 346.551 271.53L331.898 246.561C330.103 243.502 326.821 241.622 323.274 241.622H61.5769C58.1103 241.622 54.891 243.418 53.0692 246.367L38.9308 269.255C37.109 272.204 33.8897 274 30.4231 274H5.23047C2.46905 274 0.230469 271.761 0.230469 269V5.37744C0.230469 2.61602 2.46905 0.377441 5.23047 0.377441H8Z" fill="#FFE4D1" fill-opacity="0.79" style="mix-blend-mode:multiply"/>
<path d="M8 0.377441H374.768H378.768C381.529 0.377441 383.768 2.61602 383.768 5.37744V269C383.768 271.761 381.529 274 378.768 274H350.863C349.09 274 347.449 273.06 346.551 271.53L331.898 246.561C330.103 243.502 326.821 241.622 323.274 241.622H61.5769C58.1103 241.622 54.891 243.418 53.0692 246.367L38.9308 269.255C37.109 272.204 33.8897 274 30.4231 274H5.23047C2.46905 274 0.230469 271.761 0.230469 269V5.37744C0.230469 2.61602 2.46905 0.377441 5.23047 0.377441H8Z" fill="#F9AE3D" fill-opacity="0.5"/>
</svg>
