<svg width="26" height="31" viewBox="0 0 26 31" fill="none" xmlns="http://www.w3.org/2000/svg">
<path d="M14.9322 14.2009L19.652 2.78174L24.778 14.1914C24.8137 14.271 24.816 14.3627 24.7851 14.4442C23.0568 19.0038 16.5313 19.0372 14.9257 14.433C14.8993 14.3575 14.9017 14.2748 14.9322 14.2009Z" stroke="#323232" stroke-width="1.5"/>
<path d="M1.00058 16.9448L5.72039 5.52563L10.8464 16.9353C10.8821 17.0149 10.8844 17.1066 10.8535 17.1881C9.12518 21.7477 2.59963 21.7811 0.994036 17.1769C0.967685 17.1013 0.970015 17.0187 1.00058 16.9448Z" stroke="#323232" stroke-width="1.5"/>
<path d="M14.9375 14.0476H24.7311" stroke="#323232" stroke-width="1.5"/>
<path d="M1.00391 16.7915H10.7975" stroke="#323232" stroke-width="1.5"/>
<path d="M5.875 4.20306L19.806 1.46252" stroke="#323232" stroke-width="1.5"/>
<path d="M8.92188 23.3088H16.4733" stroke="#323232" stroke-width="1.5"/>
</svg>
