<svg width="25" height="23" viewBox="0 0 25 23" fill="none" xmlns="http://www.w3.org/2000/svg">
<path d="M22.1582 3.42894C21.598 2.86849 20.9329 2.42391 20.2008 2.12058C19.4688 1.81726 18.6841 1.66113 17.8917 1.66113C17.0993 1.66113 16.3147 1.81726 15.5826 2.12058C14.8506 2.42391 14.1855 2.86849 13.6253 3.42894L12.4627 4.59152L11.3001 3.42894C10.1686 2.29741 8.6339 1.66172 7.03367 1.66172C5.43344 1.66172 3.89875 2.29741 2.76722 3.42894C1.63569 4.56047 1 6.09516 1 7.69539C1 9.29562 1.63569 10.8303 2.76722 11.9618L3.9298 13.1244L12.4627 21.6573L20.9956 13.1244L22.1582 11.9618C22.7186 11.4017 23.1632 10.7365 23.4665 10.0045C23.7699 9.27244 23.926 8.4878 23.926 7.69539C23.926 6.90299 23.7699 6.11834 23.4665 5.38629C23.1632 4.65424 22.7186 3.98913 22.1582 3.42894Z" stroke="#232323" stroke-width="1.5" stroke-linecap="round" stroke-linejoin="round"/>
</svg>
