<svg width="21" height="22" viewBox="0 0 21 22" fill="none" xmlns="http://www.w3.org/2000/svg">
<path d="M15.4395 1.48291H5.93945C3.3161 1.48291 1.18945 3.60956 1.18945 6.23291V15.7329C1.18945 18.3563 3.3161 20.4829 5.93945 20.4829H15.4395C18.0628 20.4829 20.1895 18.3563 20.1895 15.7329V6.23291C20.1895 3.60956 18.0628 1.48291 15.4395 1.48291Z" stroke="white" stroke-width="1.5" stroke-linecap="round" stroke-linejoin="round"/>
<path d="M14.4886 10.3845C14.6058 11.1751 14.4708 11.9826 14.1027 12.692C13.7345 13.4015 13.1521 13.9768 12.4381 14.3361C11.7242 14.6955 10.9151 14.8206 10.126 14.6936C9.33686 14.5666 8.60786 14.194 8.04269 13.6289C7.47751 13.0637 7.10493 12.3347 6.97795 11.5456C6.85097 10.7564 6.97605 9.94735 7.3354 9.23341C7.69475 8.51946 8.27007 7.93701 8.97952 7.56888C9.68898 7.20076 10.4965 7.06571 11.2871 7.18295C12.0936 7.30254 12.8402 7.67834 13.4167 8.25484C13.9932 8.83134 14.369 9.57798 14.4886 10.3845Z" stroke="white" stroke-width="1.5" stroke-linecap="round" stroke-linejoin="round"/>
<path d="M15.916 5.7583H15.926" stroke="white" stroke-width="1.5" stroke-linecap="round" stroke-linejoin="round"/>
</svg>
