<svg width="29" height="30" viewBox="0 0 29 30" fill="none" xmlns="http://www.w3.org/2000/svg">
<path d="M19.4739 14.1401L23.541 4.22681L27.9582 14.132C27.9886 14.2001 27.9906 14.2784 27.9643 14.3483C26.4821 18.2876 20.8451 18.3161 19.4683 14.3387C19.4459 14.274 19.4479 14.2034 19.4739 14.1401Z" stroke="#232323" stroke-width="1.5"/>
<path d="M20.2021 12.8735H27.3767" stroke="#232323" stroke-width="1.5" stroke-linecap="round"/>
<path d="M1.16433 17.9951L5.23147 8.08179L9.64866 17.987C9.67905 18.0551 9.68099 18.1334 9.65472 18.2032C8.17251 22.1426 2.53556 22.1711 1.15876 18.1936C1.13637 18.129 1.13835 18.0584 1.16433 17.9951Z" stroke="#232323" stroke-width="1.5"/>
<path d="M1.89258 16.7285H9.0671" stroke="#232323" stroke-width="1.5" stroke-linecap="round"/>
<path d="M5.36921 6.61386L23.6533 2.73687" stroke="#232323" stroke-width="1.5"/>
<path d="M11.9805 23.6738H19.1635" stroke="#232323" stroke-width="1.5"/>
</svg>
