<svg width="311" height="70" viewBox="0 0 311 70" fill="none" xmlns="http://www.w3.org/2000/svg">
<g clip-path="url(#clip0_515_935)">
<path d="M48.0196 9.51093H19.2807L12.0376 22.1221H55.0291L48.0196 9.51093ZM55.0291 22.1221L33.5333 60.1935H47.7859L62.2722 34.7332L55.0291 22.1221ZM4.79443 34.7332L19.2807 60.1935H33.5333L12.0376 22.1221L4.79443 34.7332Z" fill="#00479D"/>
<path d="M61.0999 0.945007H5.95866C2.92122 0.945007 0.351074 3.56242 0.351074 6.65572V62.8111C0.351074 65.9044 2.92122 68.5218 5.95866 68.5218H61.0999C64.1374 68.5218 66.7075 65.9044 66.7075 62.8111V6.65572C66.7075 3.56242 64.1374 0.945007 61.0999 0.945007ZM19.2767 9.51108H48.0156L55.2587 22.1222H12.0335L19.2767 9.51108ZM19.2767 60.1937L4.79041 34.7334L12.0335 22.1222L33.5293 60.1937H19.2767ZM48.0156 60.1937H33.7629L55.2587 22.1222L62.5018 34.7334L48.0156 60.1937Z" fill="white"/>
<path d="M279.569 33.5433L276.532 47.8201H287.98C285.644 49.9616 282.373 51.3893 278.868 51.3893C273.261 51.3893 268.588 46.1544 268.588 39.7299C268.588 32.1156 274.195 26.1669 280.737 26.1669C284.476 26.1669 287.747 28.0705 289.85 30.6879L307.841 23.3116C305.271 14.2696 294.289 7.60712 280.971 7.60712C262.045 7.60712 246.625 22.5977 246.625 40.9196C246.625 56.6241 260.176 69.4732 276.999 69.4732C289.616 69.4732 297.093 65.1902 303.168 58.7656C307.841 53.7687 312.28 43.775 309.944 33.5433H279.569Z" fill="white"/>
<path d="M230.025 9.27362L214.604 38.541L211.333 9.27362H191.473L171.613 68.2843H191.473L199.417 44.4897L202.221 68.2843H215.072L227.922 44.0138L226.52 68.2843H245.68L249.418 9.27362H230.025Z" fill="white"/>
<path d="M87.7338 9.27313H81.8925L96.8461 36.637L66.939 68.2838H73.7148L102.921 37.5888L87.7338 9.27313ZM129.557 9.27313H122.781L113.903 18.791L108.762 9.27313H90.7712L105.024 35.4472L129.557 9.27313ZM77.2195 68.2838H97.7807L108.061 57.5763L113.903 68.2838H119.744L104.323 39.9682L77.2195 68.2838ZM124.417 43.2995C124.417 28.3088 133.996 15.2218 148.015 9.27313H133.062L105.958 37.8267L122.548 68.2838H139.37C130.492 63.5249 124.417 54.245 124.417 43.2995Z" fill="white"/>
<path d="M172.784 48.7728C169.98 49.4867 166.709 49.9626 163.438 49.9626C158.298 49.9626 154.092 45.6795 154.092 40.4447C154.092 33.3063 160.401 27.3577 168.111 27.3577C172.317 27.3577 176.055 28.0715 179.326 29.2612L185.868 10.2255C181.195 8.55988 176.055 7.60809 170.681 7.60809C148.017 7.60809 129.792 23.5505 129.792 43.3001C129.792 49.7246 132.129 56.1492 137.036 60.9081C144.279 68.2844 155.027 70.6639 166.475 68.2844L172.784 48.7728Z" fill="white"/>
</g>
<defs>
<clipPath id="clip0_515_935">
<rect width="310.52" height="68.5286" fill="white" transform="translate(0.347168 0.945068)"/>
</clipPath>
</defs>
</svg>
