<svg width="418" height="44" viewBox="0 0 418 44" fill="none" xmlns="http://www.w3.org/2000/svg">
<g clip-path="url(#clip0_515_844)">
<path fill-rule="evenodd" clip-rule="evenodd" d="M22.0109 27.1712C19.4622 27.1712 17.232 26.6352 15.2143 25.6705C13.3027 24.7057 11.7098 23.2049 10.6478 21.2754C9.58584 19.3458 9.05486 16.9875 8.94866 14.4147C8.63007 14.2003 8.20528 14.2003 7.67429 14.2003C7.14331 14.2003 6.71852 14.2003 6.29373 14.3075V26.6352C5.97514 26.6352 5.55035 26.6352 4.91317 26.528C4.27599 26.528 3.8512 26.4208 3.53261 26.4208C3.21402 26.4208 2.78923 26.4208 2.15205 26.528C1.51486 26.528 1.09008 26.6352 0.771484 26.6352L0.771484 0.907834C1.19627 0.907834 1.62106 0.907834 2.25824 1.01503C2.89543 1.12223 3.32021 1.12223 3.63881 1.12223C3.9574 1.12223 4.38218 1.12223 4.91317 1.01503C5.44416 0.907834 5.97514 0.907834 6.39993 0.907834V11.306C7.3557 11.306 7.88669 11.4132 7.88669 11.4132C7.99289 11.4132 8.52387 11.4132 9.26725 11.306C9.58584 9.69803 10.0106 8.19727 10.754 6.8037C11.3912 5.51733 12.347 4.33815 13.5151 3.37338C14.6833 2.4086 16.0639 1.65822 17.5506 1.12223C19.1436 0.586241 20.9489 0.264648 22.7543 0.264648C25.9402 0.264648 28.4889 0.907834 30.4005 2.3014C32.312 3.58777 33.6926 5.30293 34.5422 7.33968C35.3917 9.37644 35.8165 11.4132 35.8165 13.6643C35.8165 16.1299 35.2855 18.381 34.1174 20.4178C33.0554 22.4545 31.4624 24.1697 29.3385 25.3489C27.2146 26.528 24.772 27.1712 22.0109 27.1712ZM22.5419 2.5158C20.9489 2.5158 19.5684 2.94459 18.5064 3.90936C17.4444 4.76694 16.5948 6.16051 15.9577 7.98287C15.4267 9.80523 15.1081 12.0564 15.1081 14.8435C15.1081 17.6306 15.6391 19.989 16.8072 21.9185C17.9754 23.8481 19.6746 24.8129 22.1171 24.8129C23.3915 24.8129 24.5596 24.4913 25.5154 23.8481C26.4712 23.2049 27.2146 22.3473 27.8517 21.2754C28.4889 20.2034 28.9137 18.917 29.2323 17.5235C29.5509 16.1299 29.6571 14.5219 29.6571 12.914C29.6571 11.1988 29.4447 9.48363 28.9137 7.87567C28.3827 6.26771 27.6393 4.98134 26.5774 4.01656C25.5154 3.05178 24.1348 2.5158 22.5419 2.5158ZM46.1176 15.3795V26.528C45.799 26.528 45.3743 26.528 44.8433 26.4208C44.3123 26.4208 43.7813 26.3136 43.3565 26.3136C42.8255 26.3136 42.4007 26.3136 41.8698 26.4208C41.3388 26.4208 40.914 26.528 40.5954 26.528V0.907834H49.6221C50.8965 0.907834 52.0647 1.01503 53.1266 1.33662C54.0824 1.55102 54.932 1.97981 55.5692 2.5158C56.2064 3.05178 56.7373 3.69497 57.0559 4.44535C57.3745 5.19573 57.5869 6.16051 57.5869 7.23249C57.5869 8.84045 57.2683 10.234 56.7373 11.306C56.2064 12.378 55.463 13.2355 54.401 13.7715C53.4452 14.3075 52.2771 14.7363 50.7903 15.0579C49.5159 15.2723 47.923 15.3795 46.1176 15.3795ZM46.1176 3.05178V13.3427C47.1796 13.3427 48.0292 13.2355 48.5602 13.1284C49.7283 12.8068 50.5779 12.1636 51.1089 11.306C51.6399 10.4484 51.8523 9.26924 51.8523 8.09007C51.8523 6.5893 51.5337 5.41013 50.8965 4.55255C50.2593 3.69497 49.4097 3.15898 48.454 3.15898H46.1176V3.05178ZM87.5345 13.6643C87.5345 15.4867 87.2159 17.2019 86.5787 18.8098C85.9415 20.4178 84.9858 21.9185 83.7114 23.0977C82.437 24.3841 80.9503 25.3489 79.1449 25.9921C77.3396 26.7424 75.3218 27.064 73.0917 27.064C70.3306 27.064 67.9942 26.528 65.8703 25.4561C63.8525 24.3841 62.1534 22.8833 61.0914 20.8466C59.9233 18.8098 59.3923 16.4515 59.3923 13.6643C59.3923 11.1988 59.9233 8.94765 61.0914 6.8037C62.2596 4.76694 63.9587 3.15898 66.0827 1.87261C68.2066 0.907834 70.8616 0.264648 73.8351 0.264648C76.2776 0.264648 78.5077 0.693439 80.3131 1.44382C82.1184 2.3014 83.499 3.26618 84.561 4.65975C85.6229 5.94612 86.3663 7.33969 86.8973 8.94765C87.3221 10.5556 87.5345 12.0564 87.5345 13.6643ZM73.6227 2.5158C70.9678 2.5158 69.0562 3.58777 67.5694 5.62452C66.1889 7.66128 65.4455 10.77 65.4455 14.8435C65.4455 16.1299 65.5517 17.3091 65.8703 18.4882C66.1889 19.6674 66.6137 20.7394 67.2508 21.7042C67.888 22.6689 68.7376 23.4193 69.6934 23.9553C70.6492 24.4913 71.8173 24.8129 73.1979 24.8129C74.5784 24.8129 75.7466 24.4913 76.8086 23.8481C77.8706 23.2049 78.7201 22.3473 79.3573 21.1682C79.9945 20.0962 80.5255 18.8098 80.8441 17.3091C81.1627 15.8083 81.3751 14.3075 81.3751 12.8068C81.3751 11.0916 81.0565 9.37644 80.5255 7.76848C79.9945 6.16051 79.1449 4.87414 77.9768 3.90936C76.8086 3.05178 75.3218 2.5158 73.6227 2.5158ZM105.482 18.5954C106.438 16.7731 107.181 15.2723 107.712 14.0931C108.349 12.914 108.986 11.6276 109.73 10.0196C110.473 8.51886 111.323 6.8037 112.066 5.08854C112.916 3.37338 113.553 1.97981 113.978 0.907834C114.19 0.907834 114.402 1.01503 114.721 1.01503C115.04 1.12223 115.358 1.12223 115.464 1.12223C115.677 1.12223 115.995 1.12223 116.314 1.01503C116.632 0.907834 116.951 0.907834 117.057 0.907834C117.376 3.26618 117.588 5.62452 117.907 7.98287C118.119 10.3412 118.438 12.5924 118.756 14.9507C119.075 17.2019 119.287 19.453 119.606 21.3826C119.925 23.4193 120.137 25.1345 120.456 26.528C120.137 26.528 119.606 26.528 119.075 26.4208C118.438 26.4208 117.907 26.3136 117.376 26.3136C116.845 26.3136 116.314 26.3136 115.783 26.4208C115.252 26.4208 114.721 26.528 114.402 26.528C114.296 24.9201 114.19 23.5265 114.084 22.3473C113.978 21.1682 113.871 19.6674 113.659 17.7378C113.447 15.8083 113.34 14.2003 113.128 13.0212C113.022 11.842 112.809 10.5556 112.703 9.16204C111.854 10.77 111.216 12.2708 110.579 13.4499C109.942 14.7363 109.305 16.1299 108.562 17.7378C107.818 19.3458 107.075 20.8466 106.438 22.1329C105.8 23.5265 105.163 24.9201 104.526 26.3136H103.145C102.721 25.4561 102.296 24.4913 101.871 23.6337C101.446 22.6689 100.703 21.1682 99.7472 19.1314C98.6852 17.0947 97.8356 15.1651 96.986 13.4499C96.1365 11.7348 95.4993 10.4484 95.0745 9.48364C94.1187 16.8803 93.5877 22.5617 93.5877 26.528C93.3753 26.528 93.1629 26.528 92.7381 26.4208C92.4196 26.4208 92.101 26.3136 91.7824 26.3136C91.4638 26.3136 91.1452 26.3136 90.8266 26.4208C90.508 26.4208 90.1894 26.528 89.977 26.528C90.2956 24.9201 90.6142 22.6689 91.1452 19.6674C91.57 16.7731 91.8886 14.5219 92.101 13.0212C92.3134 11.5204 92.632 9.48364 92.9505 7.01809C93.2691 4.44535 93.5877 2.4086 93.8001 0.800636C94.0125 0.800636 94.2249 0.907834 94.5435 0.907834C94.8621 1.01503 95.0745 1.01503 95.2869 1.01503C95.4993 1.01503 95.8179 1.01503 96.1365 0.907834C96.455 0.800636 96.6674 0.800636 96.8798 0.800636C98.048 3.37338 99.2162 5.73172 100.384 8.09007C101.446 10.5556 103.145 13.9859 105.482 18.5954ZM136.916 18.8098H128.314C128.102 19.5602 127.677 20.7394 127.04 22.3473C126.509 23.9553 125.978 25.3489 125.659 26.528C125.447 26.528 125.234 26.528 125.022 26.4208C124.81 26.4208 124.703 26.4208 124.491 26.4208C124.385 26.4208 124.172 26.4208 123.854 26.4208C123.535 26.4208 123.429 26.4208 123.217 26.4208C123.111 26.4208 122.898 26.4208 122.686 26.4208C122.473 26.4208 122.261 26.4208 121.942 26.528L132.456 0.586241C132.987 0.693439 133.412 0.693439 133.836 0.693439C134.261 0.693439 134.792 0.693439 135.217 0.586241L145.624 26.528C145.306 26.528 144.775 26.528 144.138 26.4208C143.5 26.4208 142.969 26.3136 142.332 26.3136C141.801 26.3136 141.27 26.3136 140.633 26.4208C139.996 26.4208 139.571 26.528 139.252 26.528C138.828 25.2417 138.403 23.8481 137.872 22.3473C137.766 20.8466 137.235 19.6674 136.916 18.8098ZM129.27 16.5587H136.067L132.774 7.76848L129.27 16.5587ZM158.156 23.8481C158.474 23.8481 158.793 23.8481 159.218 23.8481C159.536 23.8481 159.855 23.8481 160.173 23.8481C160.386 23.8481 160.598 23.8481 160.704 23.8481C160.81 23.8481 161.023 23.8481 161.129 23.8481V1.01503C161.554 1.01503 161.979 1.01503 162.51 1.12223C163.041 1.22943 163.572 1.22943 163.89 1.22943C164.209 1.22943 164.634 1.22943 165.165 1.12223C165.696 1.01503 166.227 1.01503 166.651 1.01503V23.8481C166.864 23.8481 166.97 23.8481 167.182 23.8481C167.288 23.8481 167.501 23.8481 167.819 23.8481C168.138 23.8481 168.457 23.8481 168.775 23.8481C169.094 23.8481 169.412 23.8481 169.731 23.8481C170.05 23.8481 170.368 23.8481 170.793 23.8481C171.112 23.8481 171.43 23.8481 171.749 23.8481C171.961 23.8481 172.174 23.8481 172.28 23.8481C172.386 23.8481 172.598 23.8481 172.705 23.8481V1.01503C173.129 1.01503 173.554 1.01503 174.191 1.12223C174.722 1.22943 175.147 1.22943 175.466 1.22943C175.784 1.22943 176.209 1.22943 176.846 1.12223C177.377 1.12223 177.908 1.01503 178.333 1.01503V26.7424C176.952 26.6352 175.147 26.6352 172.917 26.6352C170.687 26.6352 167.713 26.6352 163.996 26.6352C160.279 26.6352 157.306 26.6352 155.182 26.6352C153.058 26.6352 151.147 26.7424 149.66 26.7424V1.01503C150.085 1.01503 150.509 1.01503 151.147 1.12223C151.678 1.22943 152.102 1.22943 152.421 1.22943C152.74 1.22943 153.164 1.22943 153.695 1.12223C154.226 1.12223 154.757 1.01503 155.182 1.01503V23.8481C155.394 23.8481 155.501 23.8481 155.713 23.8481C155.819 23.8481 156.032 23.8481 156.35 23.8481C156.669 23.8481 156.987 23.8481 157.306 23.8481C157.518 23.8481 157.837 23.8481 158.156 23.8481Z" fill="white"/>
<path d="M120.243 35.7472C120.137 35.5328 120.03 35.3184 119.924 35.2112C119.818 35.104 119.606 35.104 119.393 35.104C119.181 35.104 118.968 35.104 118.862 35.2112C118.756 35.3184 118.65 35.4256 118.544 35.7472C118.437 35.9616 118.438 36.2832 118.438 36.6048C118.438 36.9264 118.438 37.3552 118.438 37.8911C118.438 38.4271 118.438 38.8559 118.438 39.1775C118.438 39.4991 118.544 39.8207 118.544 40.0351C118.65 40.2495 118.756 40.4639 118.862 40.5711C118.968 40.6783 119.181 40.6783 119.393 40.6783C119.606 40.6783 119.818 40.6783 119.924 40.5711C120.03 40.4639 120.137 40.3567 120.243 40.0351C120.349 39.8207 120.349 39.4991 120.349 39.1775C120.349 38.8559 120.349 38.4271 120.349 37.8911C120.349 37.3552 120.349 36.9264 120.349 36.6048C120.349 36.2832 120.243 35.9616 120.243 35.7472Z" fill="white"/>
<path d="M31.3559 35.2109H30.7188V37.4621H31.3559C31.6745 37.4621 31.8869 37.3549 32.0993 37.1405C32.3117 36.9261 32.4179 36.7117 32.4179 36.2829C32.4179 35.8541 32.3117 35.6397 32.2055 35.4253C31.9931 35.3181 31.6745 35.2109 31.3559 35.2109Z" fill="white"/>
<path d="M12.0285 35.4255L11.2852 38.8559H12.7719L12.0285 35.4255Z" fill="white"/>
<path d="M101.022 38.3199C100.916 38.2127 100.81 38.2127 100.704 38.1055C100.598 38.1055 100.385 38.1055 100.173 38.1055H99.748V40.4638H100.173C100.598 40.4638 100.916 40.3566 101.129 40.2494C101.341 40.035 101.447 39.7134 101.447 39.2846C101.447 39.0702 101.447 38.8559 101.341 38.7487C101.235 38.5343 101.129 38.4271 101.022 38.3199Z" fill="white"/>
<path d="M171.324 36.3901C171.324 36.8189 171.43 37.1405 171.643 37.3549C171.855 37.5693 172.174 37.5693 172.492 37.5693H173.13V35.2109H172.492C172.068 35.2109 171.749 35.3181 171.537 35.5325C171.43 35.6397 171.324 35.9613 171.324 36.3901Z" fill="white"/>
<path d="M17.6567 35.2109H17.0195V37.4621H17.6567C17.9753 37.4621 18.1877 37.3549 18.4001 37.1405C18.6125 36.9261 18.7187 36.7117 18.7187 36.2829C18.7187 35.8541 18.6125 35.6397 18.5063 35.4253C18.2939 35.3181 17.9753 35.2109 17.6567 35.2109Z" fill="white"/>
<path d="M125.765 38.4268C125.553 38.3196 125.234 38.2124 124.916 38.2124H124.385V40.5707H124.916C125.128 40.5707 125.341 40.5707 125.447 40.5707C125.553 40.5707 125.765 40.4636 125.872 40.3564C125.978 40.2492 126.084 40.142 126.084 40.0348C126.084 39.9276 126.19 39.7132 126.19 39.3916C125.978 38.8556 125.978 38.534 125.765 38.4268Z" fill="white"/>
<path d="M0.771484 31.5664V43.8941H178.333V31.5664H0.771484ZM13.4089 41.643L13.0903 40.035H11.0726L10.754 41.643H7.67429L6.18753 38.5342L5.65655 39.3918V41.643H4.06359V34.1391H5.55035V37.1407L7.4619 34.1391H9.05486L7.03711 37.3551L9.16105 41.4286L11.0726 34.1391H12.8779L14.8957 41.643H13.4089ZM19.9932 37.3551C19.887 37.6767 19.6746 37.8911 19.4622 38.1055C19.2498 38.3198 19.0374 38.427 18.7188 38.5342C18.4002 38.6414 18.0816 38.6414 17.763 38.6414H16.9134V41.643H15.4267V34.1391H18.0816C18.5064 34.1391 18.825 34.2463 19.0374 34.3535C19.2498 34.4607 19.4622 34.6751 19.6746 34.8895C19.887 35.1039 19.9932 35.3183 19.9932 35.6399C20.0994 35.9615 20.0994 36.1759 20.0994 36.4975C20.2055 36.8191 20.0994 37.1407 19.9932 37.3551ZM22.4357 35.5327C22.4357 35.8543 22.4357 36.0687 22.3295 36.2831C22.3295 36.4975 22.2233 36.7119 22.1171 36.9263C22.0109 37.1407 21.9047 37.2479 21.6923 37.3551C21.4799 37.4623 21.2675 37.5695 21.0551 37.5695V36.8191C21.2675 36.8191 21.3737 36.7119 21.4799 36.4975C21.5861 36.2831 21.5861 36.1759 21.5861 35.9615V35.7471H21.0551V34.1391H22.4357V35.5327ZM28.2765 40.035C28.1703 40.3566 28.0641 40.6782 27.8517 40.8926C27.6393 41.107 27.4269 41.3214 27.1084 41.4286C26.7898 41.5358 26.365 41.643 25.9402 41.643C25.4092 41.643 24.9844 41.5358 24.5596 41.3214C24.241 41.107 24.0286 40.7854 23.8162 40.4638C23.6039 40.1422 23.6039 39.7134 23.4977 39.1774C23.4977 38.7486 23.3915 38.2127 23.3915 37.7839C23.3915 37.2479 23.3915 36.8191 23.4977 36.3903C23.4977 35.9615 23.6039 35.5327 23.8162 35.1039C24.0286 34.7823 24.241 34.4607 24.5596 34.2463C24.8782 34.0319 25.4092 33.9248 25.9402 33.9248C26.365 33.9248 26.6836 34.0319 27.0022 34.1391C27.3208 34.2463 27.5331 34.3535 27.7455 34.5679C27.9579 34.7823 28.0641 34.9967 28.1703 35.3183C28.2765 35.6399 28.2765 35.9615 28.2765 36.3903H26.7898C26.7898 35.8543 26.6836 35.5327 26.5774 35.3183C26.4712 35.1039 26.2588 34.9967 25.9402 34.9967C25.6216 34.9967 25.303 35.2111 25.1968 35.5327C25.0906 35.8543 24.9844 36.3903 24.9844 37.1407H26.6836V38.3198H24.9844C24.9844 38.7486 24.9844 39.0702 24.9844 39.2846C24.9844 39.6062 25.0906 39.8206 25.0906 40.035C25.1968 40.2494 25.303 40.3566 25.4092 40.4638C25.5154 40.571 25.7278 40.571 25.9402 40.571C26.2588 40.571 26.4712 40.4638 26.6836 40.1422C26.7898 39.9278 26.896 39.3918 26.896 38.7486H28.3827C28.3827 39.3918 28.2765 39.7134 28.2765 40.035ZM33.6926 37.3551C33.5864 37.6767 33.374 37.8911 33.1616 38.1055C32.9492 38.3198 32.7368 38.427 32.4182 38.5342C32.0996 38.6414 31.781 38.6414 31.4624 38.6414H30.6129V41.643H29.1261V34.1391H31.781C32.2058 34.1391 32.5244 34.2463 32.7368 34.3535C32.9492 34.4607 33.1616 34.6751 33.374 34.8895C33.5864 35.1039 33.6926 35.3183 33.6926 35.6399C33.7988 35.9615 33.7988 36.1759 33.7988 36.4975C33.905 36.8191 33.7988 37.1407 33.6926 37.3551ZM39.4272 41.643H37.9405V38.3198H36.1351V41.643H34.6483V34.1391H36.1351V37.0335H37.9405V34.1391H39.4272V41.643ZM44.6309 41.643H40.383V34.1391H44.5247V35.4255H41.8698V37.2479H44.4185V38.5342H41.8698V40.571H44.6309V41.643ZM51.1089 41.643H49.6221V35.3183H47.923V34.0319H52.808V35.3183H51.1089V41.643ZM56.4188 41.643L56.1002 40.035H54.0824L53.7638 41.643H52.1709L54.1886 34.1391H55.994L58.0117 41.643H56.4188ZM65.6579 40.3566C65.5517 40.6782 65.3393 40.8926 65.1269 41.107C64.9145 41.3214 64.7021 41.4286 64.3835 41.5358C64.0649 41.643 63.7463 41.643 63.3216 41.643H60.9852V34.1391H65.3393V35.4255H62.472V37.0335H63.4278C63.8525 37.0335 64.1711 37.0335 64.3835 37.1407C64.7021 37.2479 64.9145 37.3551 65.1269 37.5695C65.3393 37.7839 65.4455 37.9983 65.5517 38.3198C65.6579 38.6414 65.7641 38.963 65.7641 39.3918C65.7641 39.7134 65.7641 40.035 65.6579 40.3566ZM69.7996 39.499C69.6934 39.9278 69.5872 40.2494 69.481 40.4638C69.3748 40.7854 69.2686 40.9998 69.0562 41.107C68.8438 41.3214 68.7376 41.4286 68.419 41.4286C68.2066 41.5358 67.888 41.5358 67.5694 41.5358H67.4632H67.357H67.2508C67.1447 41.5358 67.1447 41.5358 67.0385 41.5358V40.3566C67.1447 40.3566 67.357 40.3566 67.4632 40.3566C67.6756 40.3566 67.888 40.2494 67.9942 40.1422C68.1004 40.035 68.2066 39.8206 68.3128 39.6062L68.419 39.3918L66.4013 33.9248H68.1004L69.1624 37.6767L70.2244 33.9248H71.8173L69.7996 39.499ZM77.9768 43.1437H76.5962V41.643H72.9855V43.1437H71.6049V40.4638H72.2421C72.4545 40.1422 72.5607 39.7134 72.6669 39.3918C72.7731 39.0702 72.8793 38.7486 72.8793 38.3198C72.8793 37.8911 72.9855 37.5695 72.9855 37.2479C72.9855 36.8191 72.9855 36.4975 72.9855 35.9615V34.1391H77.3396V40.4638H78.083V43.1437H77.9768ZM80.2069 41.643H78.7201V34.1391H80.2069V41.643ZM86.0477 40.2494C85.9415 40.4638 85.8353 40.7854 85.6229 40.9998C85.4106 41.2142 85.1982 41.3214 84.8796 41.4286C84.561 41.5358 84.2424 41.643 83.8176 41.643H81.2689V34.1391H83.8176C84.1362 34.1391 84.4548 34.1391 84.6672 34.2463C84.8796 34.3535 85.1982 34.4607 85.3044 34.5679C85.5167 34.6751 85.6229 34.8895 85.7291 35.2111C85.8353 35.4255 85.8353 35.7471 85.8353 36.0687C85.8353 36.4975 85.7291 36.8191 85.5167 37.1407C85.3044 37.4623 85.092 37.6767 84.6672 37.7839C85.092 37.8911 85.4106 37.9983 85.6229 38.3198C85.8353 38.6414 85.9415 39.0702 85.9415 39.499C86.1539 39.7134 86.1539 40.035 86.0477 40.2494ZM91.3576 41.643H87.1097V34.1391H91.2514V35.4255H88.5965V37.2479H91.1452V38.5342H88.5965V40.571H91.3576V41.643ZM97.0922 41.643H95.6055V35.3183H94.3311C94.3311 36.1759 94.3311 36.9263 94.3311 37.6767C94.3311 38.3199 94.2249 38.8558 94.2249 39.3918C94.1187 39.8206 94.1187 40.2494 94.0125 40.571C93.9063 40.8926 93.8001 41.107 93.5877 41.3214C93.4815 41.5358 93.2691 41.643 93.0567 41.643C92.8443 41.7502 92.632 41.7502 92.3134 41.7502C92.2072 41.7502 92.101 41.7502 91.9948 41.7502C91.8886 41.7502 91.7824 41.7502 91.6762 41.7502V40.4638H91.7824H91.8886C91.9948 40.4638 92.101 40.4638 92.2072 40.4638C92.3134 40.4638 92.4196 40.3566 92.5258 40.2494C92.632 40.1422 92.632 39.9278 92.7381 39.7134C92.8443 39.499 92.8443 39.0702 92.8443 38.6414C92.8443 38.2127 92.9505 37.5695 92.9505 36.9263C92.9505 36.1759 92.9505 35.3183 92.9505 34.2463H97.1984V41.643H97.0922ZM102.721 40.3566C102.614 40.6782 102.508 40.8926 102.296 41.107C102.083 41.3214 101.871 41.4286 101.553 41.5358C101.234 41.643 100.915 41.643 100.597 41.643H98.2604V34.1391H99.7472V37.0335H100.491C100.915 37.0335 101.234 37.0335 101.553 37.1407C101.871 37.2479 102.083 37.3551 102.296 37.5695C102.508 37.7839 102.614 37.9983 102.721 38.3198C102.827 38.6414 102.933 38.963 102.933 39.3918C102.827 39.7134 102.827 40.035 102.721 40.3566ZM108.349 41.643H106.862V38.3198H105.057V41.643H103.57V34.1391H105.057V37.0335H106.862V34.1391H108.349V41.643ZM113.659 41.643H109.411V34.1391H113.553V35.4255H110.898V37.2479H113.447V38.5342H110.898V40.571H113.659V41.643ZM121.836 39.499C121.836 39.9278 121.624 40.3566 121.518 40.6782C121.305 40.9998 121.093 41.3214 120.774 41.4286C120.456 41.643 120.031 41.7502 119.394 41.7502C118.863 41.7502 118.332 41.643 118.013 41.4286C117.694 41.2142 117.376 40.9998 117.27 40.6782C117.057 40.3566 116.951 39.9278 116.951 39.499C116.951 39.0702 116.845 38.5342 116.845 37.8911C116.845 37.3551 116.845 36.8191 116.951 36.2831C116.951 35.8543 117.163 35.4255 117.27 34.9967C117.482 34.6751 117.694 34.3535 118.013 34.1391C118.332 33.9248 118.756 33.8176 119.394 33.8176C119.925 33.8176 120.456 33.9248 120.774 34.1391C121.093 34.3535 121.411 34.5679 121.518 34.9967C121.73 35.3183 121.836 35.7471 121.836 36.2831C121.836 36.7119 121.942 37.2479 121.942 37.8911C121.836 38.427 121.836 38.963 121.836 39.499ZM127.358 40.3566C127.252 40.6782 127.04 40.8926 126.827 41.107C126.615 41.3214 126.403 41.4286 126.084 41.5358C125.765 41.643 125.447 41.643 125.022 41.643H122.686V34.1391H127.04V35.4255H124.172V37.0335H125.128C125.553 37.0335 125.872 37.0335 126.084 37.1407C126.403 37.2479 126.615 37.3551 126.827 37.5695C127.04 37.7839 127.146 37.9983 127.252 38.3198C127.358 38.6414 127.465 38.963 127.465 39.3918C127.571 39.7134 127.465 40.035 127.358 40.3566ZM133.518 41.643H132.031V35.3183H130.757C130.757 36.1759 130.757 36.9263 130.757 37.6767C130.757 38.3199 130.651 38.8558 130.651 39.3918C130.544 39.8206 130.544 40.2494 130.438 40.571C130.332 40.8926 130.226 41.107 130.013 41.3214C129.907 41.5358 129.695 41.643 129.482 41.643C129.27 41.7502 129.058 41.7502 128.739 41.7502C128.633 41.7502 128.527 41.7502 128.42 41.7502C128.314 41.7502 128.208 41.7502 128.102 41.7502V40.4638H128.208H128.314C128.42 40.4638 128.527 40.4638 128.633 40.4638C128.739 40.4638 128.845 40.3566 128.951 40.2494C129.058 40.1422 129.058 39.9278 129.164 39.7134C129.27 39.499 129.27 39.0702 129.27 38.6414C129.27 38.2127 129.376 37.5695 129.376 36.9263C129.376 36.1759 129.376 35.3183 129.376 34.2463H133.624V41.643H133.518ZM146.155 43.1437H144.775V41.643H141.164V43.1437H139.783V41.643H138.19L137.872 40.035H135.854L135.536 41.643H133.943L135.96 34.1391H137.766L139.783 41.643V40.3566H140.421C140.633 40.035 140.739 39.6062 140.845 39.2846C140.952 38.963 141.058 38.6414 141.058 38.2127C141.058 37.8911 141.164 37.4623 141.164 37.1407C141.164 36.7119 141.164 36.3903 141.164 35.8543V34.0319H145.518V40.3566H146.261V43.1437H146.155ZM151.571 41.643H150.085V38.3198H148.279V41.643H146.792V34.1391H148.279V37.0335H150.085V34.1391H151.571V41.643ZM156.35 41.643L156.032 40.035H154.014L153.695 41.643H152.102L154.12 34.1391H155.925L157.943 41.643H156.35ZM163.147 41.643H161.66V38.3198H159.855V41.643H158.368V34.1391H159.855V37.0335H161.66V34.1391H163.147V41.643ZM168.988 41.643H167.501V38.3198H165.696V41.643H164.209V34.1391H165.696V37.0335H167.501V34.1391H168.988V41.643ZM174.616 41.643H173.129V38.7486H172.598L171.218 41.643H169.519L171.112 38.5342C170.687 38.427 170.368 38.1055 170.156 37.7839C169.943 37.4623 169.837 36.9263 169.837 36.3903C169.837 35.9615 169.943 35.6399 170.05 35.3183C170.156 34.9967 170.368 34.7823 170.474 34.5679C170.687 34.3535 170.899 34.2463 171.218 34.1391C171.536 34.0319 171.855 34.0319 172.174 34.0319H174.616V41.643Z" fill="white"/>
<path d="M63.9606 38.4268C63.7482 38.3196 63.4297 38.2124 63.1111 38.2124H62.5801V40.5707H63.1111C63.3235 40.5707 63.5359 40.5707 63.642 40.5707C63.7482 40.5707 63.9606 40.4636 64.0668 40.3564C64.173 40.2492 64.2792 40.142 64.2792 40.0348C64.2792 39.9276 64.3854 39.7132 64.3854 39.3916C64.2792 38.8556 64.173 38.534 63.9606 38.4268Z" fill="white"/>
<path d="M74.3677 36.6047C74.3677 36.9263 74.3677 37.2479 74.3677 37.5695C74.3677 37.8911 74.3677 38.2127 74.2615 38.5343C74.2615 38.8559 74.1553 39.1775 74.0491 39.4991C73.9429 39.8207 73.8367 40.1422 73.7305 40.3566H75.7482V35.3184H74.3677V36.6047Z" fill="white"/>
<path d="M142.651 36.6047C142.651 36.9263 142.651 37.2479 142.651 37.5695C142.651 37.8911 142.651 38.2127 142.545 38.5343C142.545 38.8559 142.438 39.1775 142.332 39.4991C142.226 39.8207 142.12 40.1422 142.014 40.3566H144.031V35.3184H142.651V36.6047Z" fill="white"/>
<path d="M154.97 35.4255L154.227 38.8559H155.713L154.97 35.4255Z" fill="white"/>
<path d="M84.1357 37.0335C84.3481 36.9263 84.4543 36.6047 84.4543 36.2831C84.4543 35.9615 84.3481 35.64 84.2419 35.5328C84.0295 35.4256 83.8171 35.3184 83.3923 35.3184H82.8613V37.2479H83.2861C83.7109 37.2479 83.9233 37.1407 84.1357 37.0335Z" fill="white"/>
<path d="M136.915 35.4255L136.172 38.8559H137.659L136.915 35.4255Z" fill="white"/>
<path d="M55.0363 35.4258L54.293 38.8561H55.7797L55.0363 35.4258Z" fill="white"/>
<path d="M84.2419 38.5337C84.1357 38.4265 84.0295 38.4265 83.9233 38.3193C83.8171 38.3193 83.6047 38.3193 83.4985 38.3193H82.8613V40.5705H83.3923C83.7109 40.5705 84.0295 40.4633 84.2419 40.3561C84.4543 40.1417 84.5605 39.9273 84.5605 39.4985C84.5605 39.2841 84.5605 39.0697 84.4543 38.9625C84.4543 38.7481 84.3481 38.6409 84.2419 38.5337Z" fill="white"/>
</g>
<g clip-path="url(#clip1_515_844)">
<path d="M258.931 5.34082H241.54L237.157 12.8139H263.173L258.931 5.34082ZM263.173 12.8139L250.165 35.374H258.79L267.556 20.2869L263.173 12.8139ZM232.773 20.2869L241.54 35.374H250.165L237.157 12.8139L232.773 20.2869Z" fill="#00479D"/>
<path d="M266.85 0.264648H233.481C231.643 0.264648 230.088 1.81566 230.088 3.64867V36.9249C230.088 38.7579 231.643 40.3089 233.481 40.3089H266.85C268.688 40.3089 270.244 38.7579 270.244 36.9249V3.64867C270.244 1.81566 268.688 0.264648 266.85 0.264648ZM241.541 5.34068H258.932L263.315 12.8137H237.158L241.541 5.34068ZM241.541 35.3738L232.774 20.2868L237.158 12.8137L250.166 35.3738H241.541ZM258.932 35.3738H250.307L263.315 12.8137L267.699 20.2868L258.932 35.3738Z" fill="white"/>
<path d="M399.054 19.582L397.216 28.042H404.144C402.73 29.311 400.75 30.157 398.63 30.157C395.236 30.157 392.408 27.055 392.408 23.248C392.408 18.736 395.802 15.211 399.761 15.211C402.023 15.211 404.003 16.339 405.275 17.89L416.162 13.5189C414.607 8.16091 407.962 4.21289 399.902 4.21289C388.449 4.21289 379.117 13.0959 379.117 23.953C379.117 33.2591 387.318 40.8731 397.498 40.8731C405.134 40.8731 409.658 38.3351 413.335 34.5281C416.162 31.567 418.849 25.645 417.435 19.582H399.054Z" fill="white"/>
<path d="M369.077 5.2002L359.745 22.5433L357.765 5.2002H345.747L333.729 40.1684H345.747L350.554 26.0683L352.251 40.1684H360.028L367.804 25.7863L366.956 40.1684H378.55L380.813 5.2002H369.077Z" fill="white"/>
<path d="M282.969 5.19971H279.434L288.483 21.4148L270.385 40.1679H274.485L292.159 21.9788L282.969 5.19971ZM308.278 5.19971H304.178L298.805 10.8397L295.694 5.19971H284.807L293.432 20.7098L308.278 5.19971ZM276.606 40.1679H289.049L295.27 33.8229L298.805 40.1679H302.34L293.008 23.3888L276.606 40.1679ZM305.168 25.3628C305.168 16.4798 310.965 8.72473 319.448 5.19971H310.399L293.998 22.1198L304.037 40.1679H314.217C308.844 37.3479 305.168 31.8489 305.168 25.3628Z" fill="white"/>
<path d="M334.436 28.606C332.74 29.029 330.76 29.311 328.781 29.311C325.67 29.311 323.125 26.773 323.125 23.671C323.125 19.441 326.943 15.916 331.609 15.916C334.154 15.916 336.416 16.339 338.395 17.044L342.354 5.7639C339.527 4.77689 336.416 4.21289 333.164 4.21289C319.449 4.21289 308.42 13.6599 308.42 25.363C308.42 29.17 309.834 32.9771 312.803 35.7971C317.186 40.1681 323.69 41.5781 330.619 40.1681L334.436 28.606Z" fill="white"/>
</g>
<defs>
<clipPath id="clip0_515_844">
<rect width="177.561" height="43.6294" fill="white" transform="translate(0.771484 0.264648)"/>
</clipPath>
<clipPath id="clip1_515_844">
<rect width="187.913" height="40.6082" fill="white" transform="translate(230.088 0.264648)"/>
</clipPath>
</defs>
</svg>
