<svg width="332" height="126" viewBox="0 0 332 126" fill="none" xmlns="http://www.w3.org/2000/svg">
<path d="M25.2518 103.42C25.2518 105.779 24.6922 107.611 23.573 108.915C22.4619 110.219 20.916 110.872 18.9353 110.872C16.9627 110.872 15.4127 110.228 14.2855 108.939C13.1583 107.643 12.5866 105.831 12.5705 103.504V100.497C12.5705 98.0817 13.1301 96.1976 14.2493 94.845C15.3685 93.4842 16.9224 92.8039 18.9112 92.8039C20.8677 92.8039 22.4096 93.4722 23.5368 94.8087C24.664 96.1372 25.2357 98.0052 25.2518 100.413V103.42ZM21.689 100.473C21.689 98.8869 21.4635 97.7073 21.0126 96.9343C20.5617 96.1614 19.8612 95.7749 18.9112 95.7749C17.9691 95.7749 17.2727 96.1493 16.8218 96.8981C16.3709 97.6389 16.1374 98.7701 16.1213 100.292V103.42C16.1213 104.958 16.3507 106.093 16.8097 106.826C17.2686 107.55 17.9772 107.913 18.9353 107.913C19.8612 107.913 20.5497 107.558 21.0006 106.85C21.4514 106.133 21.6809 105.026 21.689 103.529V100.473ZM37.0877 94.6155C38.9637 94.6155 40.4734 95.2999 41.6167 96.6686C42.7681 98.0294 43.3438 99.7846 43.3438 101.934C43.3438 104.028 42.7721 105.747 41.6288 107.091C40.4854 108.436 38.9717 109.108 37.0877 109.108V111.355H33.6818V109.108C32.4016 109.108 31.2905 108.81 30.3485 108.215C29.4145 107.611 28.6858 106.765 28.1625 105.678C27.6391 104.583 27.3774 103.343 27.3774 101.959C27.3774 99.8088 27.9531 98.0495 29.1045 96.6807C30.2559 95.3039 31.7817 94.6155 33.6818 94.6155V92.3208H37.0877V94.6155ZM33.5007 97.6469C32.6392 97.6469 31.9588 98.0294 31.4596 98.7943C30.9684 99.5592 30.7229 100.614 30.7229 101.959C30.7229 103.215 30.9684 104.213 31.4596 104.954C31.9588 105.694 32.6472 106.065 33.5248 106.065H33.6818V97.6469H33.5007ZM37.0877 97.6469V106.065H37.2688C38.1062 106.065 38.7704 105.694 39.2616 104.954C39.7527 104.205 39.9983 103.198 39.9983 101.934C39.9983 100.606 39.7527 99.5592 39.2616 98.7943C38.7785 98.0294 38.1022 97.6469 37.2326 97.6469H37.0877ZM49.4066 110.63H45.8559V93.0454H49.4066V110.63ZM52.2569 93.0454H55.8076V107.683H61.013V93.0454H64.5758V107.695H66.7377L66.4962 114.869H63.1869V110.63H52.2569V93.0454ZM72.6194 110.63H69.0686V93.0454H72.6194V110.63ZM84.2137 93.0454H87.7645V110.63H84.2137V98.9875L79.0325 110.63H75.4697V93.0454H79.0325V104.7L84.2137 93.0454ZM85.8321 88.4077C85.8321 89.4786 85.4456 90.3441 84.6727 91.0043C83.9078 91.6646 82.8973 91.9947 81.6412 91.9947C80.3771 91.9947 79.3586 91.6646 78.5856 91.0043C77.8207 90.3441 77.4383 89.4786 77.4383 88.4077H79.9383C79.9383 88.9069 80.0873 89.2974 80.3852 89.5792C80.6911 89.853 81.1098 89.9898 81.6412 89.9898C82.1646 89.9898 82.5752 89.853 82.8731 89.5792C83.171 89.2974 83.32 88.9069 83.32 88.4077H85.8321ZM102.934 110.63H99.395V103.106H94.1534V110.63H90.6027V93.0454H94.1534V100.159H99.395V93.0454H102.934V110.63ZM114.407 93.0454H117.958V110.63H114.407V98.9875L109.226 110.63H105.663V93.0454H109.226V104.7L114.407 93.0454ZM129.407 93.0454H132.958V110.63H129.407V98.9875L124.226 110.63H120.663V93.0454H124.226V104.7L129.407 93.0454ZM131.026 88.4077C131.026 89.4786 130.639 90.3441 129.866 91.0043C129.101 91.6646 128.091 91.9947 126.835 91.9947C125.571 91.9947 124.552 91.6646 123.779 91.0043C123.014 90.3441 122.632 89.4786 122.632 88.4077H125.132C125.132 88.9069 125.281 89.2974 125.579 89.5792C125.885 89.853 126.303 89.9898 126.835 89.9898C127.358 89.9898 127.769 89.853 128.067 89.5792C128.365 89.2974 128.514 88.9069 128.514 88.4077H131.026ZM155.579 114.954H152.318V110.63H143.997V114.942H140.639L140.446 107.683H141.618C142.133 107.208 142.54 106.443 142.837 105.389C143.135 104.334 143.345 102.953 143.465 101.246L143.961 93.0454H154.069V107.683H155.893L155.579 114.954ZM145.434 107.683H150.531V96.0044H147.342L147.052 100.847C146.851 103.754 146.312 106.033 145.434 107.683ZM166.34 93.0454H169.891V110.63H166.34V98.9875L161.159 110.63H157.596V93.0454H161.159V104.7L166.34 93.0454ZM185.277 93.0454V110.63H181.715V96.0044H178.454L178.212 102.236C178.116 104.289 177.882 105.92 177.512 107.128C177.149 108.327 176.614 109.209 175.905 109.773C175.205 110.336 174.259 110.622 173.067 110.63H172.198V107.683L172.608 107.647C173.349 107.558 173.88 107.075 174.203 106.198C174.533 105.312 174.738 103.75 174.818 101.512L175.048 93.0454H185.277ZM197.222 103.021H191.691V107.683H198.237V110.63H188.14V93.0454H198.212V96.0044H191.691V100.159H197.222V103.021ZM203.84 104.446V110.63H200.29V93.0454H206.28C208.019 93.0454 209.404 93.5849 210.435 94.6638C211.473 95.7427 211.993 97.1437 211.993 98.8667C211.993 100.59 211.481 101.95 210.459 102.949C209.436 103.947 208.019 104.446 206.208 104.446H203.84ZM203.84 101.488H206.28C206.956 101.488 207.48 101.266 207.85 100.823C208.221 100.38 208.406 99.7363 208.406 98.8909C208.406 98.0133 208.217 97.3168 207.838 96.8015C207.46 96.2781 206.952 96.0124 206.316 96.0044H203.84V101.488ZM220.073 110.63V93.0454H225.507C227.343 93.0454 228.736 93.456 229.686 94.2773C230.644 95.0905 231.123 96.2862 231.123 97.8643C231.123 98.758 230.926 99.527 230.532 100.171C230.137 100.815 229.598 101.286 228.913 101.584C229.702 101.81 230.31 102.265 230.737 102.949C231.164 103.625 231.377 104.463 231.377 105.461C231.377 107.168 230.906 108.456 229.964 109.326C229.03 110.195 227.673 110.63 225.894 110.63H220.073ZM223.623 102.985V107.683H225.894C226.53 107.683 227.013 107.486 227.343 107.091C227.673 106.697 227.838 106.137 227.838 105.413C227.838 103.835 227.267 103.025 226.123 102.985H223.623ZM223.623 100.401H225.471C226.864 100.401 227.561 99.6799 227.561 98.2387C227.561 97.4416 227.399 96.8699 227.077 96.5237C226.755 96.1775 226.232 96.0044 225.507 96.0044H223.623V100.401ZM245.218 100.86L247.585 93.0454H251.401L246.582 107.176C246.035 108.577 245.443 109.539 244.807 110.062C244.179 110.586 243.422 110.86 242.536 110.884H242.15L241.305 110.835L241.244 107.889C241.325 107.921 241.586 107.937 242.029 107.937C242.48 107.937 242.818 107.836 243.044 107.635C243.277 107.434 243.479 106.983 243.648 106.282L243.817 105.642L238.792 93.0454H242.597L245.218 100.86ZM258.406 103.456H256.86V110.63H253.31V93.0454H256.86V100.074H258.056L261.112 93.0454H265.435L261.136 101.234L265.918 110.63H261.691L258.406 103.456ZM270.798 104.446V110.63H267.247V93.0454H273.237C274.976 93.0454 276.361 93.5849 277.392 94.6638C278.431 95.7427 278.95 97.1437 278.95 98.8667C278.95 100.59 278.439 101.95 277.416 102.949C276.393 103.947 274.976 104.446 273.165 104.446H270.798ZM270.798 101.488H273.237C273.914 101.488 274.437 101.266 274.807 100.823C275.178 100.38 275.363 99.7363 275.363 98.8909C275.363 98.0133 275.174 97.3168 274.795 96.8015C274.417 96.2781 273.91 96.0124 273.273 96.0044H270.798V101.488ZM287.573 107.031H282.73L281.788 110.63H278.032L283.527 93.0454H286.776L292.307 110.63H288.515L287.573 107.031ZM283.503 104.072H286.788L285.146 97.8039L283.503 104.072ZM297.67 110.63H294.119V93.0454H297.67V110.63ZM291.245 90.3642C291.245 89.9214 291.41 89.555 291.74 89.2652C292.062 88.9673 292.456 88.8183 292.923 88.8183C293.39 88.8183 293.785 88.9673 294.107 89.2652C294.437 89.555 294.602 89.9214 294.602 90.3642C294.602 90.799 294.437 91.1654 294.107 91.4633C293.785 91.7531 293.39 91.8981 292.923 91.8981C292.456 91.8981 292.062 91.7531 291.74 91.4633C291.41 91.1654 291.245 90.799 291.245 90.3642ZM297.151 90.3642C297.151 89.9294 297.312 89.5671 297.634 89.2773C297.964 88.9794 298.362 88.8304 298.829 88.8304C299.296 88.8304 299.691 88.9794 300.013 89.2773C300.343 89.5671 300.508 89.9294 300.508 90.3642C300.508 90.7829 300.351 91.1452 300.037 91.4512C299.731 91.7491 299.329 91.8981 298.829 91.8981C298.33 91.8981 297.924 91.7491 297.61 91.4512C297.304 91.1452 297.151 90.7829 297.151 90.3642ZM312.984 110.63H309.445V103.106H304.204V110.63H300.653V93.0454H304.204V100.159H309.445V93.0454H312.984V110.63ZM319.554 110.63H316.003V93.0454H319.554V110.63Z" fill="white"/>
<g clip-path="url(#clip0_515_913)">
<path fill-rule="evenodd" clip-rule="evenodd" d="M49.1569 47.45C44.7393 47.45 40.8738 46.5048 37.3765 44.8034C34.0633 43.102 31.3023 40.4554 29.4616 37.0527C27.6209 33.6499 26.7006 29.4909 26.5165 24.9539C25.9643 24.5758 25.228 24.5758 24.3077 24.5758C23.3874 24.5758 22.6511 24.5758 21.9148 24.7649V46.5048C21.3626 46.5048 20.6263 46.5048 19.5219 46.3158C18.4175 46.3158 17.6812 46.1267 17.129 46.1267C16.5768 46.1267 15.8406 46.1267 14.7361 46.3158C13.6317 46.3158 12.8955 46.5048 12.3433 46.5048V1.1345C13.0795 1.1345 13.8158 1.1345 14.9202 1.32354C16.0246 1.51259 16.7609 1.51259 17.3131 1.51259C17.8653 1.51259 18.6016 1.51259 19.5219 1.32354C20.4423 1.1345 21.3626 1.1345 22.0989 1.1345V19.4717C23.7555 19.4717 24.6758 19.6607 24.6758 19.6607C24.8599 19.6607 25.7802 19.6607 27.0687 19.4717C27.6209 16.636 28.3572 13.9894 29.6457 11.5319C30.7501 9.26335 32.4067 7.18388 34.4314 5.48249C36.4562 3.7811 38.8491 2.4578 41.426 1.51259C44.1871 0.567373 47.3162 0.000244141 50.4454 0.000244141C55.9674 0.000244141 60.385 1.1345 63.6983 3.59206C67.0115 5.86058 69.4044 8.88526 70.8769 12.4771C72.3495 16.0689 73.0858 19.6607 73.0858 23.6306C73.0858 27.9786 72.1654 31.9485 70.1407 35.5403C68.3 39.1321 65.539 42.1568 61.8576 44.2363C58.1762 46.3158 53.9427 47.45 49.1569 47.45ZM50.0772 3.97015C47.3162 3.97015 44.9233 4.72632 43.0826 6.4277C41.242 7.94005 39.7694 10.3976 38.665 13.6113C37.7447 16.8251 37.1925 20.795 37.1925 25.7101C37.1925 30.6252 38.1128 34.7841 40.1376 38.1869C42.1623 41.5897 45.1074 43.2911 49.341 43.2911C51.5498 43.2911 53.5745 42.724 55.2311 41.5897C56.8878 40.4554 58.1762 38.9431 59.2806 37.0527C60.385 35.1622 61.1213 32.8937 61.6735 30.4362C62.2257 27.9786 62.4098 25.143 62.4098 22.3073C62.4098 19.2826 62.0417 16.2579 61.1213 13.4223C60.201 10.5866 58.9125 8.31813 57.0718 6.61675C55.2311 4.91536 52.8383 3.97015 50.0772 3.97015ZM90.9404 26.6553V46.3158C90.3882 46.3158 89.6519 46.3158 88.7315 46.1267C87.8112 46.1267 86.8909 45.9377 86.1546 45.9377C85.2342 45.9377 84.498 45.9377 83.5776 46.1267C82.6573 46.1267 81.921 46.3158 81.3688 46.3158V1.1345H97.0146C99.2234 1.1345 101.248 1.32354 103.089 1.89067C104.745 2.26876 106.218 3.02493 107.322 3.97015C108.427 4.91536 109.347 6.04962 109.899 7.37292C110.452 8.69622 110.82 10.3976 110.82 12.288C110.82 15.1237 110.268 17.5812 109.347 19.4717C108.427 21.3621 107.138 22.8744 105.298 23.8197C103.641 24.7649 101.616 25.521 99.0394 26.0882C96.8305 26.4663 94.0695 26.6553 90.9404 26.6553ZM90.9404 4.91536V23.0635C92.781 23.0635 94.2536 22.8744 95.1739 22.6854C97.1987 22.1183 98.6712 20.984 99.5916 19.4717C100.512 17.9593 100.88 15.8799 100.88 13.8004C100.88 11.1538 100.328 9.07431 99.2234 7.56196C98.119 6.04962 96.6465 5.1044 94.9899 5.1044H90.9404V4.91536ZM162.727 23.6306C162.727 26.8443 162.175 29.869 161.07 32.7047C159.966 35.5403 158.309 38.1869 156.1 40.2664C153.892 42.5349 151.315 44.2363 148.186 45.3706C145.056 46.6939 141.559 47.261 137.694 47.261C132.908 47.261 128.858 46.3158 125.177 44.4253C121.68 42.5349 118.735 39.8883 116.894 36.2965C114.869 32.7047 113.949 28.5457 113.949 23.6306C113.949 19.2826 114.869 15.3127 116.894 11.5319C118.919 7.94005 121.864 5.1044 125.545 2.83589C129.227 1.1345 133.828 0.000244141 138.982 0.000244141C143.216 0.000244141 147.081 0.756416 150.21 2.07972C153.339 3.59206 155.732 5.29345 157.573 7.75101C159.414 10.0195 160.702 12.4771 161.623 15.3127C162.359 18.1484 162.727 20.795 162.727 23.6306ZM138.614 3.97015C134.012 3.97015 130.699 5.86058 128.122 9.45239C125.729 13.0442 124.441 18.5265 124.441 25.7101C124.441 27.9786 124.625 30.0581 125.177 32.1375C125.729 34.217 126.466 36.1074 127.57 37.8088C128.674 39.5102 130.147 40.8335 131.803 41.7787C133.46 42.724 135.485 43.2911 137.878 43.2911C140.271 43.2911 142.295 42.724 144.136 41.5897C145.977 40.4554 147.449 38.9431 148.554 36.8636C149.658 34.9732 150.578 32.7047 151.131 30.0581C151.683 27.4115 152.051 24.7649 152.051 22.1183C152.051 19.0936 151.499 16.0689 150.578 13.2333C149.658 10.3976 148.186 8.12909 146.161 6.4277C144.136 4.91536 141.559 3.97015 138.614 3.97015ZM193.834 32.3266C195.491 29.1129 196.78 26.4663 197.7 24.3868C198.804 22.3073 199.909 20.0388 201.197 17.2032C202.486 14.5566 203.958 11.5319 205.247 8.50718C206.719 5.48249 207.824 3.02493 208.56 1.1345C208.928 1.1345 209.296 1.32354 209.848 1.32354C210.401 1.51259 210.953 1.51259 211.137 1.51259C211.505 1.51259 212.057 1.51259 212.609 1.32354C213.162 1.1345 213.714 1.1345 213.898 1.1345C214.45 5.29345 214.818 9.45239 215.37 13.6113C215.739 17.7703 216.291 21.7402 216.843 25.8991C217.395 29.869 217.763 33.8389 218.316 37.2417C218.868 40.8335 219.236 43.8582 219.788 46.3158C219.236 46.3158 218.316 46.3158 217.395 46.1267C216.291 46.1267 215.37 45.9377 214.45 45.9377C213.53 45.9377 212.609 45.9377 211.689 46.1267C210.769 46.1267 209.848 46.3158 209.296 46.3158C209.112 43.4801 208.928 41.0226 208.744 38.9431C208.56 36.8636 208.376 34.217 208.008 30.8142C207.64 27.4115 207.456 24.5758 207.087 22.4964C206.903 20.4169 206.535 18.1484 206.351 15.6908C204.879 18.5265 203.774 21.1731 202.67 23.2525C201.565 25.521 200.461 27.9786 199.172 30.8142C197.884 33.6499 196.595 36.2965 195.491 38.565C194.387 41.0226 193.282 43.4801 192.178 45.9377H189.785C189.049 44.4253 188.312 42.724 187.576 41.2116C186.84 39.5102 185.551 36.8636 183.895 33.2718C182.054 29.68 180.582 26.2772 179.109 23.2525C177.636 20.2278 176.532 17.9593 175.796 16.2579C174.139 29.3019 173.219 39.3212 173.219 46.3158C172.851 46.3158 172.483 46.3158 171.746 46.1267C171.194 46.1267 170.642 45.9377 170.09 45.9377C169.537 45.9377 168.985 45.9377 168.433 46.1267C167.881 46.1267 167.329 46.3158 166.96 46.3158C167.513 43.4801 168.065 39.5102 168.985 34.217C169.722 29.1129 170.274 25.143 170.642 22.4964C171.01 19.8498 171.562 16.2579 172.114 11.91C172.667 7.37292 173.219 3.7811 173.587 0.945459C173.955 0.945459 174.323 1.1345 174.875 1.1345C175.428 1.32354 175.796 1.32354 176.164 1.32354C176.532 1.32354 177.084 1.32354 177.636 1.1345C178.189 0.945459 178.557 0.945459 178.925 0.945459C180.95 5.48249 182.974 9.64144 184.999 13.8004C186.84 18.1484 189.785 24.1977 193.834 32.3266ZM248.319 32.7047H233.409C233.041 34.028 232.305 36.1075 231.2 38.9431C230.28 41.7787 229.36 44.2363 228.807 46.3158C228.439 46.3158 228.071 46.3158 227.703 46.1267C227.335 46.1267 227.151 46.1267 226.783 46.1267C226.599 46.1267 226.23 46.1267 225.678 46.1267C225.126 46.1267 224.942 46.1267 224.574 46.1267C224.39 46.1267 224.022 46.1267 223.654 46.1267C223.285 46.1267 222.917 46.1267 222.365 46.3158L240.588 0.567373C241.508 0.756416 242.244 0.756416 242.981 0.756416C243.717 0.756416 244.637 0.756416 245.374 0.567373L263.412 46.3158C262.86 46.3158 261.94 46.3158 260.835 46.1267C259.731 46.1267 258.811 45.9377 257.706 45.9377C256.786 45.9377 255.865 45.9377 254.761 46.1267C253.657 46.1267 252.92 46.3158 252.368 46.3158C251.632 44.0473 250.896 41.5897 249.975 38.9431C249.791 36.2965 248.871 34.217 248.319 32.7047ZM235.066 28.7348H246.846L241.14 13.2333L235.066 28.7348ZM285.132 41.5897C285.684 41.5897 286.237 41.5897 286.973 41.5897C287.525 41.5897 288.077 41.5897 288.63 41.5897C288.998 41.5897 289.366 41.5897 289.55 41.5897C289.734 41.5897 290.102 41.5897 290.286 41.5897V1.32354C291.022 1.32354 291.759 1.32354 292.679 1.51259C293.599 1.70163 294.52 1.70163 295.072 1.70163C295.624 1.70163 296.36 1.70163 297.281 1.51259C298.201 1.32354 299.121 1.32354 299.858 1.32354V41.5897C300.226 41.5897 300.41 41.5897 300.778 41.5897C300.962 41.5897 301.33 41.5897 301.882 41.5897C302.435 41.5897 302.987 41.5897 303.539 41.5897C304.091 41.5897 304.643 41.5897 305.196 41.5897C305.748 41.5897 306.3 41.5897 307.036 41.5897C307.589 41.5897 308.141 41.5897 308.693 41.5897C309.061 41.5897 309.429 41.5897 309.613 41.5897C309.797 41.5897 310.165 41.5897 310.35 41.5897V1.32354C311.086 1.32354 311.822 1.32354 312.927 1.51259C313.847 1.70163 314.583 1.70163 315.135 1.70163C315.688 1.70163 316.424 1.70163 317.528 1.51259C318.449 1.51259 319.369 1.32354 320.105 1.32354V46.6939C317.712 46.5048 314.583 46.5048 310.718 46.5048C306.852 46.5048 301.698 46.5048 295.256 46.5048C288.814 46.5048 283.66 46.5048 279.978 46.5048C276.297 46.5048 272.984 46.6939 270.407 46.6939V1.32354C271.143 1.32354 271.879 1.32354 272.984 1.51259C273.904 1.70163 274.64 1.70163 275.193 1.70163C275.745 1.70163 276.481 1.70163 277.401 1.51259C278.322 1.51259 279.242 1.32354 279.978 1.32354V41.5897C280.346 41.5897 280.531 41.5897 280.899 41.5897C281.083 41.5897 281.451 41.5897 282.003 41.5897C282.555 41.5897 283.107 41.5897 283.66 41.5897C284.028 41.5897 284.58 41.5897 285.132 41.5897Z" fill="white"/>
<path d="M219.42 62.573C219.236 62.195 219.052 61.8169 218.867 61.6278C218.683 61.4388 218.315 61.4388 217.947 61.4388C217.579 61.4388 217.211 61.4388 217.027 61.6278C216.843 61.8169 216.659 62.0059 216.475 62.573C216.291 62.9511 216.291 63.5183 216.291 64.0854C216.291 64.6525 216.291 65.4087 216.291 66.3539C216.291 67.2991 216.291 68.0553 216.291 68.6224C216.291 69.1895 216.475 69.7567 216.475 70.1348C216.659 70.5128 216.843 70.8909 217.027 71.08C217.211 71.269 217.579 71.269 217.947 71.269C218.315 71.269 218.683 71.269 218.867 71.08C219.052 70.8909 219.236 70.7019 219.42 70.1348C219.604 69.7567 219.604 69.1895 219.604 68.6224C219.604 68.0553 219.604 67.2991 219.604 66.3539C219.604 65.4087 219.604 64.6525 219.604 64.0854C219.604 63.5183 219.42 62.9511 219.42 62.573Z" fill="white"/>
<path d="M65.3598 61.6282H64.2554V65.5981H65.3598C65.912 65.5981 66.2801 65.4091 66.6483 65.031C67.0164 64.6529 67.2005 64.2748 67.2005 63.5187C67.2005 62.7625 67.0164 62.3844 66.8323 62.0063C66.4642 61.8173 65.912 61.6282 65.3598 61.6282Z" fill="white"/>
<path d="M31.8524 62.0059L30.564 68.0553H33.1409L31.8524 62.0059Z" fill="white"/>
<path d="M186.105 67.1101C185.921 66.921 185.737 66.921 185.553 66.732C185.369 66.732 185 66.732 184.632 66.732H183.896V70.8909H184.632C185.369 70.8909 185.921 70.7019 186.289 70.5129C186.657 70.1348 186.841 69.5676 186.841 68.8115C186.841 68.4334 186.841 68.0553 186.657 67.8663C186.473 67.4882 186.289 67.2991 186.105 67.1101Z" fill="white"/>
<path d="M307.96 63.7082C307.96 64.4644 308.144 65.0315 308.513 65.4096C308.881 65.7877 309.433 65.7877 309.985 65.7877H311.09V61.6287H309.985C309.249 61.6287 308.697 61.8178 308.329 62.1959C308.145 62.3849 307.96 62.952 307.96 63.7082Z" fill="white"/>
<path d="M41.6117 61.6282H40.5073V65.5981H41.6117C42.1639 65.5981 42.5321 65.4091 42.9002 65.031C43.2683 64.6529 43.4524 64.2748 43.4524 63.5187C43.4524 62.7625 43.2683 62.3844 43.0843 62.0063C42.7161 61.8173 42.1639 61.6282 41.6117 61.6282Z" fill="white"/>
<path d="M228.994 67.2998C228.626 67.1107 228.074 66.9217 227.521 66.9217H226.601V71.0806H227.521C227.89 71.0806 228.258 71.0806 228.442 71.0806C228.626 71.0806 228.994 70.8916 229.178 70.7026C229.362 70.5135 229.546 70.3245 229.546 70.1354C229.546 69.9464 229.73 69.5683 229.73 69.0012C229.362 68.0559 229.362 67.4888 228.994 67.2998Z" fill="white"/>
<path d="M12.3433 55.2005V76.9404H320.105V55.2005H12.3433ZM34.2474 72.9705L33.6952 70.1349H30.1979L29.6457 72.9705H24.3077L21.7307 67.4883L20.8104 69.0006V72.9705H18.0494V59.7375H20.6263V65.0307L23.9396 59.7375H26.7006L23.2033 65.4088L26.8846 72.5925L30.1979 59.7375H33.327L36.8243 72.9705H34.2474ZM45.6596 65.4088C45.4755 65.9759 45.1074 66.354 44.7393 66.7321C44.3711 67.1102 44.003 67.2992 43.4508 67.4883C42.8986 67.6773 42.3464 67.6773 41.7942 67.6773H40.3216V72.9705H37.7447V59.7375H42.3464C43.0826 59.7375 43.6348 59.9266 44.003 60.1156C44.3711 60.3047 44.7393 60.6827 45.1074 61.0608C45.4755 61.4389 45.6596 61.817 45.6596 62.3841C45.8437 62.9513 45.8437 63.3293 45.8437 63.8965C46.0277 64.4636 45.8437 65.0307 45.6596 65.4088ZM49.8932 62.1951C49.8932 62.7622 49.8932 63.1403 49.7091 63.5184C49.7091 63.8965 49.525 64.2746 49.341 64.6526C49.1569 65.0307 48.9728 65.2198 48.6047 65.4088C48.2365 65.5979 47.8684 65.7869 47.5003 65.7869V64.4636C47.8684 64.4636 48.0525 64.2746 48.2365 63.8965C48.4206 63.5184 48.4206 63.3293 48.4206 62.9513V62.5732H47.5003V59.7375H49.8932V62.1951ZM60.0169 70.1349C59.8328 70.702 59.6488 71.2692 59.2806 71.6472C58.9125 72.0253 58.5444 72.4034 57.9922 72.5925C57.44 72.7815 56.7037 72.9705 55.9674 72.9705C55.0471 72.9705 54.3108 72.7815 53.5745 72.4034C53.0223 72.0253 52.6542 71.4582 52.286 70.8911C51.9179 70.3239 51.9179 69.5678 51.7338 68.6225C51.7338 67.8664 51.5498 66.9212 51.5498 66.165C51.5498 65.2198 51.5498 64.4636 51.7338 63.7074C51.7338 62.9513 51.9179 62.1951 52.286 61.4389C52.6542 60.8718 53.0223 60.3047 53.5745 59.9266C54.1267 59.5485 55.0471 59.3594 55.9674 59.3594C56.7037 59.3594 57.2559 59.5485 57.8081 59.7375C58.3603 59.9266 58.7284 60.1156 59.0966 60.4937C59.4647 60.8718 59.6488 61.2499 59.8328 61.817C60.0169 62.3841 60.0169 62.9513 60.0169 63.7074H57.44C57.44 62.7622 57.2559 62.1951 57.0718 61.817C56.8878 61.4389 56.5196 61.2499 55.9674 61.2499C55.4152 61.2499 54.863 61.628 54.6789 62.1951C54.4949 62.7622 54.3108 63.7074 54.3108 65.0307H57.2559V67.1102H54.3108C54.3108 67.8664 54.3108 68.4335 54.3108 68.8116C54.3108 69.3787 54.4949 69.7568 54.4949 70.1349C54.6789 70.513 54.863 70.702 55.0471 70.8911C55.2311 71.0801 55.5993 71.0801 55.9674 71.0801C56.5196 71.0801 56.8878 70.8911 57.2559 70.3239C57.44 69.9459 57.624 69.0006 57.624 67.8664H60.201C60.201 69.0006 60.0169 69.5678 60.0169 70.1349ZM69.4044 65.4088C69.2203 65.9759 68.8522 66.354 68.484 66.7321C68.1159 67.1102 67.7478 67.2992 67.1956 67.4883C66.6434 67.6773 66.0912 67.6773 65.539 67.6773H64.0664V72.9705H61.4895V59.7375H66.0912C66.8274 59.7375 67.3796 59.9266 67.7478 60.1156C68.1159 60.3047 68.484 60.6827 68.8522 61.0608C69.2203 61.4389 69.4044 61.817 69.4044 62.3841C69.5885 62.9513 69.5885 63.3293 69.5885 63.8965C69.7725 64.4636 69.5885 65.0307 69.4044 65.4088ZM79.3441 72.9705H76.7671V67.1102H73.638V72.9705H71.061V59.7375H73.638V64.8417H76.7671V59.7375H79.3441V72.9705ZM88.3634 72.9705H81.0007V59.7375H88.1793V62.006H83.5776V65.2198H87.9953V67.4883H83.5776V71.0801H88.3634V72.9705ZM99.5916 72.9705H97.0146V61.817H94.0695V59.5485H102.537V61.817H99.5916V72.9705ZM108.795 72.9705L108.243 70.1349H104.745L104.193 72.9705H101.432L104.93 59.7375H108.059L111.556 72.9705H108.795ZM124.809 70.702C124.625 71.2692 124.257 71.6472 123.889 72.0253C123.52 72.4034 123.152 72.5925 122.6 72.7815C122.048 72.9705 121.496 72.9705 120.759 72.9705H116.71V59.7375H124.257V62.006H119.287V64.8417H120.943C121.68 64.8417 122.232 64.8417 122.6 65.0307C123.152 65.2198 123.52 65.4088 123.889 65.7869C124.257 66.165 124.441 66.5431 124.625 67.1102C124.809 67.6773 124.993 68.2445 124.993 69.0006C124.993 69.5678 124.993 70.1349 124.809 70.702ZM131.988 69.1897C131.803 69.9458 131.619 70.513 131.435 70.8911C131.251 71.4582 131.067 71.8363 130.699 72.0253C130.331 72.4034 130.147 72.5925 129.595 72.5925C129.227 72.7815 128.674 72.7815 128.122 72.7815H127.938H127.754H127.57C127.386 72.7815 127.386 72.7815 127.202 72.7815V70.702C127.386 70.702 127.754 70.702 127.938 70.702C128.306 70.702 128.674 70.513 128.858 70.3239C129.042 70.1349 129.227 69.7568 129.411 69.3787L129.595 69.0006L126.097 59.3594H129.042L130.883 65.976L132.724 59.3594H135.485L131.988 69.1897ZM146.161 75.6171H143.768V72.9705H137.51V75.6171H135.117V70.8911H136.221C136.589 70.3239 136.773 69.5678 136.957 69.0006C137.141 68.4335 137.326 67.8664 137.326 67.1102C137.326 66.354 137.51 65.7869 137.51 65.2198C137.51 64.4636 137.51 63.8965 137.51 62.9513V59.7375H145.056V70.8911H146.345V75.6171H146.161ZM150.026 72.9705H147.449V59.7375H150.026V72.9705ZM160.15 70.513C159.966 70.8911 159.782 71.4582 159.414 71.8363C159.046 72.2144 158.677 72.4034 158.125 72.5925C157.573 72.7815 157.021 72.9705 156.285 72.9705H151.867V59.7375H156.285C156.837 59.7375 157.389 59.7375 157.757 59.9266C158.125 60.1156 158.677 60.3047 158.861 60.4937C159.23 60.6827 159.414 61.0608 159.598 61.628C159.782 62.006 159.782 62.5732 159.782 63.1403C159.782 63.8965 159.598 64.4636 159.23 65.0307C158.862 65.5979 158.493 65.9759 157.757 66.165C158.493 66.354 159.046 66.5431 159.414 67.1102C159.782 67.6773 159.966 68.4335 159.966 69.1897C160.334 69.5678 160.334 70.1349 160.15 70.513ZM169.353 72.9705H161.991V59.7375H169.169V62.006H164.568V65.2198H168.985V67.4883H164.568V71.0801H169.353V72.9705ZM179.293 72.9705H176.716V61.817H174.507C174.507 63.3293 174.507 64.6526 174.507 65.976C174.507 67.1102 174.323 68.0554 174.323 69.0006C174.139 69.7568 174.139 70.513 173.955 71.0801C173.771 71.6472 173.587 72.0253 173.219 72.4034C173.035 72.7815 172.667 72.9705 172.298 72.9705C171.93 73.1596 171.562 73.1596 171.01 73.1596C170.826 73.1596 170.642 73.1596 170.458 73.1596C170.274 73.1596 170.09 73.1596 169.906 73.1596V70.8911H170.09H170.274C170.458 70.8911 170.642 70.8911 170.826 70.8911C171.01 70.8911 171.194 70.702 171.378 70.513C171.562 70.3239 171.562 69.9458 171.746 69.5678C171.93 69.1897 171.93 68.4335 171.93 67.6773C171.93 66.9212 172.114 65.7869 172.114 64.6526C172.114 63.3293 172.114 61.817 172.114 59.9266H179.477V72.9705H179.293ZM189.049 70.702C188.865 71.2692 188.681 71.6472 188.312 72.0253C187.944 72.4034 187.576 72.5925 187.024 72.7815C186.472 72.9705 185.92 72.9705 185.367 72.9705H181.318V59.7375H183.895V64.8417H185.183C185.92 64.8417 186.472 64.8417 187.024 65.0307C187.576 65.2198 187.944 65.4088 188.312 65.7869C188.681 66.165 188.865 66.5431 189.049 67.1102C189.233 67.6773 189.417 68.2445 189.417 69.0006C189.233 69.5678 189.233 70.1349 189.049 70.702ZM198.804 72.9705H196.227V67.1102H193.098V72.9705H190.521V59.7375H193.098V64.8417H196.227V59.7375H198.804V72.9705ZM208.008 72.9705H200.645V59.7375H207.824V62.006H203.222V65.2198H207.64V67.4883H203.222V71.0801H208.008V72.9705ZM222.181 69.1897C222.181 69.9458 221.813 70.702 221.629 71.2692C221.261 71.8363 220.892 72.4034 220.34 72.5925C219.788 72.9705 219.052 73.1596 217.947 73.1596C217.027 73.1596 216.107 72.9705 215.554 72.5925C215.002 72.2144 214.45 71.8363 214.266 71.2692C213.898 70.702 213.714 69.9458 213.714 69.1897C213.714 68.4335 213.53 67.4883 213.53 66.354C213.53 65.4088 213.53 64.4636 213.714 63.5184C213.714 62.7622 214.082 62.006 214.266 61.2499C214.634 60.6827 215.002 60.1156 215.554 59.7375C216.107 59.3594 216.843 59.1704 217.947 59.1704C218.868 59.1704 219.788 59.3594 220.34 59.7375C220.892 60.1156 221.445 60.4937 221.629 61.2499C221.997 61.817 222.181 62.5732 222.181 63.5184C222.181 64.2746 222.365 65.2198 222.365 66.354C222.181 67.2992 222.181 68.2445 222.181 69.1897ZM231.752 70.702C231.568 71.2692 231.2 71.6472 230.832 72.0253C230.464 72.4034 230.096 72.5925 229.544 72.7815C228.991 72.9705 228.439 72.9705 227.703 72.9705H223.654V59.7375H231.2V62.006H226.23V64.8417H227.887C228.623 64.8417 229.176 64.8417 229.544 65.0307C230.096 65.2198 230.464 65.4088 230.832 65.7869C231.2 66.165 231.384 66.5431 231.568 67.1102C231.752 67.6773 231.937 68.2445 231.937 69.0006C232.121 69.5678 231.937 70.1349 231.752 70.702ZM242.428 72.9705H239.851V61.817H237.643C237.643 63.3293 237.643 64.6526 237.643 65.976C237.643 67.1102 237.459 68.0554 237.459 69.0006C237.275 69.7568 237.275 70.513 237.09 71.0801C236.906 71.6472 236.722 72.0253 236.354 72.4034C236.17 72.7815 235.802 72.9705 235.434 72.9705C235.066 73.1596 234.698 73.1596 234.145 73.1596C233.961 73.1596 233.777 73.1596 233.593 73.1596C233.409 73.1596 233.225 73.1596 233.041 73.1596V70.8911H233.225H233.409C233.593 70.8911 233.777 70.8911 233.961 70.8911C234.145 70.8911 234.329 70.702 234.514 70.513C234.698 70.3239 234.698 69.9458 234.882 69.5678C235.066 69.1897 235.066 68.4335 235.066 67.6773C235.066 66.9212 235.25 65.7869 235.25 64.6526C235.25 63.3293 235.25 61.817 235.25 59.9266H242.613V72.9705H242.428ZM264.333 75.6171H261.94V72.9705H255.681V75.6171H253.288V72.9705H250.527L249.975 70.1349H246.478L245.926 72.9705H243.165L246.662 59.7375H249.791L253.288 72.9705V70.702H254.393C254.761 70.1349 254.945 69.3787 255.129 68.8116C255.313 68.2445 255.497 67.6773 255.497 66.9212C255.497 66.354 255.681 65.5979 255.681 65.0307C255.681 64.2746 255.681 63.7074 255.681 62.7622V59.5485H263.228V70.702H264.517V75.6171H264.333ZM273.72 72.9705H271.143V67.1102H268.014V72.9705H265.437V59.7375H268.014V64.8417H271.143V59.7375H273.72V72.9705ZM282.003 72.9705L281.451 70.1349H277.954L277.401 72.9705H274.64L278.138 59.7375H281.267L284.764 72.9705H282.003ZM293.783 72.9705H291.207V67.1102H288.077V72.9705H285.5V59.7375H288.077V64.8417H291.207V59.7375H293.783V72.9705ZM303.907 72.9705H301.33V67.1102H298.201V72.9705H295.624V59.7375H298.201V64.8417H301.33V59.7375H303.907V72.9705ZM313.663 72.9705H311.086V67.8664H310.166L307.773 72.9705H304.828L307.589 67.4883C306.852 67.2992 306.3 66.7321 305.932 66.165C305.564 65.5979 305.38 64.6526 305.38 63.7074C305.38 62.9513 305.564 62.3841 305.748 61.817C305.932 61.2499 306.3 60.8718 306.484 60.4937C306.852 60.1156 307.22 59.9266 307.773 59.7375C308.325 59.5485 308.877 59.5485 309.429 59.5485H313.663V72.9705Z" fill="white"/>
<path d="M121.865 67.2998C121.497 67.1107 120.945 66.9217 120.393 66.9217H119.472V71.0806H120.393C120.761 71.0806 121.129 71.0806 121.313 71.0806C121.497 71.0806 121.865 70.8916 122.049 70.7026C122.233 70.5135 122.417 70.3245 122.417 70.1354C122.417 69.9464 122.601 69.5683 122.601 69.0012C122.417 68.0559 122.233 67.4888 121.865 67.2998Z" fill="white"/>
<path d="M139.905 64.085C139.905 64.6521 139.905 65.2192 139.905 65.7864C139.905 66.3535 139.905 66.9206 139.721 67.4878C139.721 68.0549 139.537 68.622 139.353 69.1891C139.168 69.7563 138.984 70.3234 138.8 70.7015H142.298V61.8165H139.905V64.085Z" fill="white"/>
<path d="M258.256 64.085C258.256 64.6521 258.256 65.2192 258.256 65.7864C258.256 66.3535 258.256 66.9206 258.072 67.4878C258.072 68.0549 257.888 68.622 257.704 69.1891C257.52 69.7563 257.336 70.3234 257.152 70.7015H260.649V61.8165H258.256V64.085Z" fill="white"/>
<path d="M279.614 62.0059L278.326 68.0553H280.903L279.614 62.0059Z" fill="white"/>
<path d="M156.837 64.8412C157.205 64.6521 157.389 64.085 157.389 63.5178C157.389 62.9507 157.205 62.3836 157.021 62.1946C156.653 62.0055 156.285 61.8165 155.549 61.8165H154.628V65.2192H155.365C156.101 65.2192 156.469 65.0302 156.837 64.8412Z" fill="white"/>
<path d="M248.319 62.0059L247.031 68.0553H249.608L248.319 62.0059Z" fill="white"/>
<path d="M106.403 62.0059L105.115 68.0553H107.692L106.403 62.0059Z" fill="white"/>
<path d="M157.021 67.4883C156.837 67.2992 156.653 67.2992 156.469 67.1102C156.285 67.1102 155.917 67.1102 155.733 67.1102H154.628V71.0801H155.549C156.101 71.0801 156.653 70.891 157.021 70.702C157.389 70.3239 157.574 69.9458 157.574 69.1896C157.574 68.8116 157.574 68.4335 157.389 68.2444C157.389 67.8663 157.205 67.6773 157.021 67.4883Z" fill="white"/>
</g>
<defs>
<clipPath id="clip0_515_913">
<rect width="307.762" height="76.9405" fill="white" transform="translate(12.3472)"/>
</clipPath>
</defs>
</svg>
