<svg width="249" height="29" viewBox="0 0 249 29" fill="none" xmlns="http://www.w3.org/2000/svg">
<g clip-path="url(#clip0_985_1220)">
<path fill-rule="evenodd" clip-rule="evenodd" d="M12.6135 16.6841C11.0999 16.6841 9.77545 16.3658 8.57717 15.7929C7.44196 15.2199 6.49594 14.3287 5.86527 13.1827C5.2346 12.0368 4.91926 10.6363 4.85619 9.1084C4.66699 8.98108 4.41472 8.98108 4.09938 8.98108C3.78404 8.98108 3.53177 8.98108 3.27951 9.04474V16.3658C3.0903 16.3658 2.83803 16.3658 2.45963 16.3022C2.08122 16.3022 1.82895 16.2385 1.63975 16.2385C1.45055 16.2385 1.19828 16.2385 0.819876 16.3022C0.441472 16.3022 0.189202 16.3658 0 16.3658L0 1.08705C0.25227 1.08705 0.504539 1.08705 0.882944 1.15071C1.26135 1.21437 1.51362 1.21437 1.70282 1.21437C1.89202 1.21437 2.14429 1.21437 2.45963 1.15071C2.77497 1.08705 3.0903 1.08705 3.34257 1.08705V7.26222C3.91018 7.26222 4.22552 7.32588 4.22552 7.32588C4.28858 7.32588 4.60392 7.32588 5.04539 7.26222C5.2346 6.3073 5.48686 5.41603 5.92834 4.58843C6.30674 3.82449 6.87435 3.12422 7.56809 2.55126C8.26183 1.97831 9.08171 1.53268 9.96465 1.21437C10.9107 0.896063 11.9828 0.705078 13.055 0.705078C14.947 0.705078 16.4606 1.08705 17.5958 1.91465C18.731 2.67859 19.5509 3.69717 20.0554 4.90674C20.56 6.11631 20.8122 7.32588 20.8122 8.66277C20.8122 10.127 20.4969 11.4639 19.8032 12.6735C19.1725 13.883 18.2265 14.9016 16.9651 15.6019C15.7038 16.3022 14.2532 16.6841 12.6135 16.6841ZM12.9288 2.04197C11.9828 2.04197 11.1629 2.29662 10.5323 2.86957C9.90158 3.37886 9.39704 4.20646 9.01864 5.28871C8.7033 6.37096 8.5141 7.70785 8.5141 9.36305C8.5141 11.0183 8.82944 12.4188 9.52318 13.5647C10.2169 14.7106 11.226 15.2836 12.6765 15.2836C13.4334 15.2836 14.1271 15.0926 14.6947 14.7106C15.2623 14.3287 15.7038 13.8194 16.0822 13.1827C16.4606 12.5461 16.7129 11.7822 16.9021 10.9546C17.0913 10.127 17.1543 9.17207 17.1543 8.21714C17.1543 7.19856 17.0282 6.17997 16.7129 5.22505C16.3975 4.27013 15.9561 3.50619 15.3254 2.93323C14.6947 2.36028 13.8748 2.04197 12.9288 2.04197ZM26.9298 9.68136V16.3022C26.7406 16.3022 26.4883 16.3022 26.173 16.2385C25.8576 16.2385 25.5423 16.1748 25.29 16.1748C24.9747 16.1748 24.7224 16.1748 24.4071 16.2385C24.0918 16.2385 23.8395 16.3022 23.6503 16.3022V1.08705H29.011C29.7678 1.08705 30.4616 1.15071 31.0922 1.34169C31.6598 1.46902 32.1644 1.72366 32.5428 2.04197C32.9212 2.36028 33.2365 2.74225 33.4257 3.18788C33.6149 3.63351 33.7411 4.20646 33.7411 4.84308C33.7411 5.798 33.5519 6.6256 33.2365 7.26222C32.9212 7.89883 32.4797 8.40813 31.849 8.72644C31.2814 9.04474 30.5877 9.29939 29.7048 9.49037C28.9479 9.6177 28.0019 9.68136 26.9298 9.68136ZM26.9298 2.36028V8.47179C27.5605 8.47179 28.065 8.40813 28.3803 8.34447C29.0741 8.15348 29.5786 7.77151 29.894 7.26222C30.2093 6.75293 30.3354 6.05265 30.3354 5.35237C30.3354 4.46111 30.1462 3.76083 29.7678 3.25154C29.3894 2.74225 28.8849 2.42394 28.3173 2.42394H26.9298V2.36028ZM51.5261 8.66277C51.5261 9.74502 51.3369 10.7636 50.9585 11.7185C50.5801 12.6735 50.0125 13.5647 49.2556 14.265C48.4988 15.0289 47.6159 15.6019 46.5438 15.9839C45.4716 16.4295 44.2733 16.6205 42.9489 16.6205C41.3092 16.6205 39.9217 16.3022 38.6603 15.6655C37.462 15.0289 36.453 14.1377 35.8223 12.9281C35.1285 11.7185 34.8132 10.318 34.8132 8.66277C34.8132 7.19856 35.1285 5.86166 35.8223 4.58843C36.516 3.37886 37.5251 2.42394 38.7865 1.66C40.0478 1.08705 41.6245 0.705078 43.3904 0.705078C44.8409 0.705078 46.1653 0.959724 47.2375 1.40536C48.3096 1.91465 49.1295 2.4876 49.7602 3.3152C50.3909 4.07914 50.8323 4.90674 51.1477 5.86166C51.3999 6.81659 51.5261 7.70785 51.5261 8.66277ZM43.2642 2.04197C41.6876 2.04197 40.5523 2.67859 39.6694 3.88816C38.8495 5.09773 38.4081 6.94391 38.4081 9.36305C38.4081 10.127 38.4711 10.8273 38.6603 11.5275C38.8495 12.2278 39.1018 12.8644 39.4802 13.4374C39.8586 14.0103 40.3631 14.456 40.9308 14.7743C41.4984 15.0926 42.1921 15.2836 43.012 15.2836C43.8318 15.2836 44.5256 15.0926 45.1563 14.7106C45.7869 14.3287 46.2915 13.8194 46.6699 13.1191C47.0483 12.4825 47.3636 11.7185 47.5528 10.8273C47.742 9.936 47.8682 9.04474 47.8682 8.15348C47.8682 7.1349 47.679 6.11631 47.3636 5.16139C47.0483 4.20646 46.5437 3.44253 45.85 2.86957C45.1563 2.36028 44.2733 2.04197 43.2642 2.04197ZM62.1845 11.5912C62.7521 10.509 63.1935 9.6177 63.5089 8.91742C63.8873 8.21714 64.2657 7.4532 64.7072 6.49828C65.1486 5.60702 65.6532 4.58843 66.0947 3.56985C66.5992 2.55126 66.9776 1.72366 67.2299 1.08705C67.356 1.08705 67.4821 1.15071 67.6713 1.15071C67.8605 1.21437 68.0497 1.21437 68.1128 1.21437C68.2389 1.21437 68.4281 1.21437 68.6173 1.15071C68.8065 1.08705 68.9958 1.08705 69.0588 1.08705C69.248 2.4876 69.3742 3.88816 69.5634 5.28871C69.6895 6.68926 69.8787 8.02616 70.0679 9.42671C70.2571 10.7636 70.3832 12.1005 70.5724 13.2464C70.7616 14.456 70.8878 15.4746 71.077 16.3022C70.8878 16.3022 70.5724 16.3022 70.2571 16.2385C69.8787 16.2385 69.5634 16.1748 69.248 16.1748C68.9327 16.1748 68.6173 16.1748 68.302 16.2385C67.9867 16.2385 67.6713 16.3022 67.4821 16.3022C67.4191 15.3472 67.356 14.5196 67.2929 13.8194C67.2299 13.1191 67.1668 12.2278 67.0407 11.0819C66.9145 9.936 66.8515 8.98108 66.7253 8.2808C66.6623 7.58053 66.5361 6.81659 66.4731 5.98899C65.9685 6.94391 65.5901 7.83517 65.2117 8.53545C64.8333 9.29939 64.4549 10.127 64.0134 11.0819C63.572 12.0368 63.1305 12.9281 62.7521 13.692C62.3737 14.5196 61.9953 15.3472 61.6169 16.1748H60.797C60.5447 15.6655 60.2924 15.0926 60.0402 14.5833C59.7879 14.0103 59.3464 13.1191 58.7788 11.9095C58.1482 10.6999 57.6436 9.55404 57.1391 8.53545C56.6345 7.51687 56.2561 6.75293 56.0039 6.17997C55.4363 10.5726 55.1209 13.9467 55.1209 16.3022C54.9948 16.3022 54.8686 16.3022 54.6164 16.2385C54.4272 16.2385 54.238 16.1748 54.0488 16.1748C53.8596 16.1748 53.6704 16.1748 53.4812 16.2385C53.292 16.2385 53.1028 16.3022 52.9766 16.3022C53.1658 15.3472 53.355 14.0103 53.6704 12.2278C53.9226 10.509 54.1118 9.17207 54.238 8.2808C54.3641 7.38954 54.5533 6.17997 54.7425 4.71576C54.9317 3.18788 55.1209 1.97831 55.2471 1.02339C55.3732 1.02339 55.4993 1.08705 55.6885 1.08705C55.8777 1.15071 56.0039 1.15071 56.13 1.15071C56.2561 1.15071 56.4453 1.15071 56.6345 1.08705C56.8237 1.02339 56.9499 1.02339 57.076 1.02339C57.7697 2.55126 58.4635 3.95182 59.1572 5.35237C59.7879 6.81659 60.797 8.85376 62.1845 11.5912ZM80.8524 11.7185H75.744C75.6178 12.1642 75.3656 12.8644 74.9872 13.8194C74.6718 14.7743 74.3565 15.6019 74.1673 16.3022C74.0411 16.3022 73.915 16.3022 73.7889 16.2385C73.6627 16.2385 73.5997 16.2385 73.4735 16.2385C73.4105 16.2385 73.2843 16.2385 73.0951 16.2385C72.9059 16.2385 72.8429 16.2385 72.7167 16.2385C72.6537 16.2385 72.5275 16.2385 72.4014 16.2385C72.2753 16.2385 72.1491 16.2385 71.9599 16.3022L78.2036 0.896063C78.5189 0.959724 78.7712 0.959724 79.0235 0.959724C79.2757 0.959724 79.5911 0.959724 79.8433 0.896063L86.0239 16.3022C85.8347 16.3022 85.5194 16.3022 85.141 16.2385C84.7626 16.2385 84.4473 16.1748 84.0689 16.1748C83.7535 16.1748 83.4382 16.1748 83.0598 16.2385C82.6814 16.2385 82.4291 16.3022 82.2399 16.3022C81.9876 15.5382 81.7354 14.7106 81.42 13.8194C81.357 12.9281 81.0416 12.2278 80.8524 11.7185ZM76.3116 10.3816H80.3479L78.3928 5.16139L76.3116 10.3816ZM93.4659 14.7106C93.6551 14.7106 93.8443 14.7106 94.0966 14.7106C94.2858 14.7106 94.475 14.7106 94.6642 14.7106C94.7903 14.7106 94.9165 14.7106 94.9795 14.7106C95.0426 14.7106 95.1687 14.7106 95.2318 14.7106V1.15071C95.4841 1.15071 95.7363 1.15071 96.0517 1.21437C96.367 1.27803 96.6824 1.27803 96.8716 1.27803C97.0608 1.27803 97.313 1.27803 97.6284 1.21437C97.9437 1.15071 98.259 1.15071 98.5113 1.15071V14.7106C98.6374 14.7106 98.7005 14.7106 98.8266 14.7106C98.8897 14.7106 99.0158 14.7106 99.205 14.7106C99.3942 14.7106 99.5834 14.7106 99.7726 14.7106C99.9618 14.7106 100.151 14.7106 100.34 14.7106C100.529 14.7106 100.719 14.7106 100.971 14.7106C101.16 14.7106 101.349 14.7106 101.539 14.7106C101.665 14.7106 101.791 14.7106 101.854 14.7106C101.917 14.7106 102.043 14.7106 102.106 14.7106V1.15071C102.358 1.15071 102.611 1.15071 102.989 1.21437C103.304 1.27803 103.557 1.27803 103.746 1.27803C103.935 1.27803 104.187 1.27803 104.566 1.21437C104.881 1.21437 105.196 1.15071 105.449 1.15071V16.4295C104.629 16.3658 103.557 16.3658 102.232 16.3658C100.908 16.3658 99.142 16.3658 96.9346 16.3658C94.7272 16.3658 92.9614 16.3658 91.7 16.3658C90.4387 16.3658 89.3035 16.4295 88.4205 16.4295V1.15071C88.6728 1.15071 88.9251 1.15071 89.3035 1.21437C89.6188 1.27803 89.8711 1.27803 90.0603 1.27803C90.2495 1.27803 90.5017 1.27803 90.8171 1.21437C91.1324 1.21437 91.4477 1.15071 91.7 1.15071V14.7106C91.8261 14.7106 91.8892 14.7106 92.0154 14.7106C92.0784 14.7106 92.2046 14.7106 92.3938 14.7106C92.583 14.7106 92.7722 14.7106 92.9614 14.7106C93.0875 14.7106 93.2767 14.7106 93.4659 14.7106Z" fill="#0257A3"/>
<path d="M70.9511 21.777C70.888 21.6497 70.8249 21.5223 70.7618 21.4587C70.6988 21.395 70.5726 21.395 70.4465 21.395C70.3204 21.395 70.1942 21.395 70.1312 21.4587C70.0681 21.5223 70.005 21.586 69.942 21.777C69.8789 21.9043 69.8789 22.0953 69.8789 22.2863C69.8789 22.4773 69.8789 22.7319 69.8789 23.0502C69.8789 23.3685 69.8789 23.6232 69.8789 23.8142C69.8789 24.0051 69.942 24.1961 69.942 24.3235C70.005 24.4508 70.0681 24.5781 70.1312 24.6418C70.1942 24.7054 70.3204 24.7054 70.4465 24.7054C70.5726 24.7054 70.6988 24.7054 70.7618 24.6418C70.8249 24.5781 70.888 24.5144 70.9511 24.3235C71.0141 24.1961 71.0141 24.0051 71.0141 23.8142C71.0141 23.6232 71.0141 23.3685 71.0141 23.0502C71.0141 22.7319 71.0141 22.4773 71.0141 22.2863C71.0141 22.0953 70.9511 21.9043 70.9511 21.777Z" fill="#0257A3"/>
<path d="M18.1636 21.4587H17.7852V22.7956H18.1636C18.3528 22.7956 18.4789 22.732 18.605 22.6047C18.7312 22.4773 18.7942 22.35 18.7942 22.0954C18.7942 21.8407 18.7312 21.7134 18.6681 21.5861C18.542 21.5224 18.3528 21.4587 18.1636 21.4587Z" fill="#0257A3"/>
<path d="M6.68561 21.5859L6.24414 23.6231H7.12708L6.68561 21.5859Z" fill="#0257A3"/>
<path d="M59.5361 23.3048C59.473 23.2412 59.41 23.2412 59.3469 23.1775C59.2838 23.1775 59.1577 23.1775 59.0316 23.1775H58.7793V24.578H59.0316C59.2838 24.578 59.473 24.5144 59.5992 24.4507C59.7253 24.3234 59.7884 24.1324 59.7884 23.8778C59.7884 23.7504 59.7884 23.6231 59.7253 23.5595C59.6622 23.4321 59.5992 23.3685 59.5361 23.3048Z" fill="#0257A3"/>
<path d="M101.287 22.159C101.287 22.4137 101.35 22.6046 101.476 22.732C101.602 22.8593 101.792 22.8593 101.981 22.8593H102.359V21.4587H101.981C101.729 21.4587 101.539 21.5224 101.413 21.6497C101.35 21.7134 101.287 21.9044 101.287 22.159Z" fill="#0257A3"/>
<path d="M10.0268 21.4587H9.64844V22.7956H10.0268C10.216 22.7956 10.3422 22.732 10.4683 22.6047C10.5944 22.4773 10.6575 22.35 10.6575 22.0954C10.6575 21.8407 10.5944 21.7134 10.5314 21.5861C10.4052 21.5224 10.216 21.4587 10.0268 21.4587Z" fill="#0257A3"/>
<path d="M74.23 23.3685C74.1039 23.3049 73.9147 23.2412 73.7255 23.2412H73.4102V24.6418H73.7255C73.8516 24.6418 73.9778 24.6418 74.0408 24.6418C74.1039 24.6418 74.23 24.5781 74.2931 24.5144C74.3562 24.4508 74.4192 24.3871 74.4192 24.3235C74.4192 24.2598 74.4823 24.1325 74.4823 23.9415C74.3562 23.6232 74.3562 23.4322 74.23 23.3685Z" fill="#0257A3"/>
<path d="M0 19.2942V26.6153H105.449V19.2942H0ZM7.50502 25.2784L7.31582 24.3235H6.11754L5.92834 25.2784H4.09938L3.21644 23.4322L2.9011 23.9415V25.2784H1.95509V20.8221H2.83803V22.6046L3.97325 20.8221H4.91926L3.72098 22.7319L4.98233 25.1511L6.11754 20.8221H7.18968L8.38797 25.2784H7.50502ZM11.4152 22.7319C11.3521 22.9229 11.226 23.0502 11.0999 23.1775C10.9737 23.3049 10.8476 23.3685 10.6584 23.4322C10.4692 23.4959 10.28 23.4959 10.0908 23.4959H9.58625V25.2784H8.7033V20.8221H10.28C10.5323 20.8221 10.7215 20.8857 10.8476 20.9494C10.9737 21.0131 11.0999 21.1404 11.226 21.2677C11.3521 21.395 11.4152 21.5223 11.4152 21.7133C11.4783 21.9043 11.4783 22.0316 11.4783 22.2226C11.5413 22.4136 11.4783 22.6046 11.4152 22.7319ZM12.8658 21.6497C12.8658 21.8407 12.8658 21.968 12.8027 22.0953C12.8027 22.2226 12.7396 22.3499 12.6765 22.4773C12.6135 22.6046 12.5504 22.6683 12.4243 22.7319C12.2981 22.7956 12.172 22.8592 12.0459 22.8592V22.4136C12.172 22.4136 12.2351 22.3499 12.2981 22.2226C12.3612 22.0953 12.3612 22.0316 12.3612 21.9043V21.777H12.0459V20.8221H12.8658V21.6497ZM16.3345 24.3235C16.2714 24.5144 16.2083 24.7054 16.0822 24.8327C15.9561 24.9601 15.8299 25.0874 15.6407 25.1511C15.4515 25.2147 15.1992 25.2784 14.947 25.2784C14.6316 25.2784 14.3794 25.2147 14.1271 25.0874C13.9379 24.9601 13.8118 24.7691 13.6856 24.5781C13.5595 24.3871 13.5595 24.1325 13.4964 23.8142C13.4964 23.5595 13.4334 23.2412 13.4334 22.9866C13.4334 22.6683 13.4334 22.4136 13.4964 22.159C13.4964 21.9043 13.5595 21.6497 13.6856 21.395C13.8118 21.204 13.9379 21.0131 14.1271 20.8857C14.3163 20.7584 14.6316 20.6947 14.947 20.6947C15.1992 20.6947 15.3884 20.7584 15.5777 20.8221C15.7669 20.8857 15.893 20.9494 16.0191 21.0767C16.1453 21.204 16.2083 21.3314 16.2714 21.5223C16.3345 21.7133 16.3345 21.9043 16.3345 22.159H15.4515C15.4515 21.8407 15.3884 21.6497 15.3254 21.5223C15.2623 21.395 15.1362 21.3314 14.947 21.3314C14.7578 21.3314 14.5686 21.4587 14.5055 21.6497C14.4424 21.8407 14.3794 22.159 14.3794 22.6046H15.3884V23.3049H14.3794C14.3794 23.5595 14.3794 23.7505 14.3794 23.8778C14.3794 24.0688 14.4424 24.1961 14.4424 24.3235C14.5055 24.4508 14.5686 24.5144 14.6316 24.5781C14.6947 24.6418 14.8208 24.6418 14.947 24.6418C15.1362 24.6418 15.2623 24.5781 15.3884 24.3871C15.4515 24.2598 15.5146 23.9415 15.5146 23.5595H16.3975C16.3975 23.9415 16.3345 24.1325 16.3345 24.3235ZM19.5509 22.7319C19.4878 22.9229 19.3617 23.0502 19.2356 23.1775C19.1094 23.3049 18.9833 23.3685 18.7941 23.4322C18.6049 23.4959 18.4157 23.4959 18.2265 23.4959H17.7219V25.2784H16.839V20.8221H18.4157C18.668 20.8221 18.8572 20.8857 18.9833 20.9494C19.1094 21.0131 19.2356 21.1404 19.3617 21.2677C19.4878 21.395 19.5509 21.5223 19.5509 21.7133C19.614 21.9043 19.614 22.0316 19.614 22.2226C19.677 22.4136 19.614 22.6046 19.5509 22.7319ZM22.9565 25.2784H22.0736V23.3049H21.0014V25.2784H20.1185V20.8221H21.0014V22.5409H22.0736V20.8221H22.9565V25.2784ZM26.0468 25.2784H23.5241V20.8221H25.9838V21.586H24.4071V22.6683H25.9207V23.4322H24.4071V24.6418H26.0468V25.2784ZM29.894 25.2784H29.011V21.5223H28.0019V20.7584H30.903V21.5223H29.894V25.2784ZM33.0473 25.2784L32.8581 24.3235H31.6598L31.4706 25.2784H30.5246L31.7229 20.8221H32.7951L33.9933 25.2784H33.0473ZM38.5342 24.5144C38.4711 24.7054 38.345 24.8327 38.2188 24.9601C38.0927 25.0874 37.9666 25.1511 37.7774 25.2147C37.5882 25.2784 37.399 25.2784 37.1467 25.2784H35.7592V20.8221H38.345V21.586H36.6422V22.5409H37.2098C37.462 22.5409 37.6512 22.5409 37.7774 22.6046C37.9666 22.6683 38.0927 22.7319 38.2188 22.8592C38.345 22.9866 38.4081 23.1139 38.4711 23.3049C38.5342 23.4959 38.5973 23.6868 38.5973 23.9415C38.5973 24.1325 38.5973 24.3235 38.5342 24.5144ZM40.9938 24.0051C40.9308 24.2598 40.8677 24.4508 40.8046 24.5781C40.7415 24.7691 40.6785 24.8964 40.5523 24.9601C40.4262 25.0874 40.3631 25.1511 40.1739 25.1511C40.0478 25.2147 39.8586 25.2147 39.6694 25.2147H39.6063H39.5433H39.4802C39.4171 25.2147 39.4171 25.2147 39.3541 25.2147V24.5144C39.4171 24.5144 39.5433 24.5144 39.6063 24.5144C39.7325 24.5144 39.8586 24.4508 39.9217 24.3871C39.9847 24.3235 40.0478 24.1961 40.1109 24.0688L40.1739 23.9415L38.9757 20.6947H39.9847L40.6154 22.9229L41.2461 20.6947H42.1921L40.9938 24.0051ZM45.85 26.1696H45.0301V25.2784H42.8858V26.1696H42.066V24.5781H42.4444C42.5705 24.3871 42.6336 24.1325 42.6966 23.9415C42.7597 23.7505 42.8228 23.5595 42.8228 23.3049C42.8228 23.0502 42.8858 22.8592 42.8858 22.6683C42.8858 22.4136 42.8858 22.2226 42.8858 21.9043V20.8221H45.4716V24.5781H45.9131V26.1696H45.85ZM47.1744 25.2784H46.2915V20.8221H47.1744V25.2784ZM50.6431 24.4508C50.5801 24.5781 50.517 24.7691 50.3909 24.8964C50.2647 25.0237 50.1386 25.0874 49.9494 25.1511C49.7602 25.2147 49.571 25.2784 49.3187 25.2784H47.8051V20.8221H49.3187C49.5079 20.8221 49.6971 20.8221 49.8233 20.8857C49.9494 20.9494 50.1386 21.0131 50.2017 21.0767C50.3278 21.1404 50.3909 21.2677 50.4539 21.4587C50.517 21.586 50.517 21.777 50.517 21.968C50.517 22.2226 50.4539 22.4136 50.3278 22.6046C50.2017 22.7956 50.0755 22.9229 49.8233 22.9866C50.0755 23.0502 50.2647 23.1139 50.3909 23.3049C50.517 23.4959 50.5801 23.7505 50.5801 24.0051C50.7062 24.1325 50.7062 24.3235 50.6431 24.4508ZM53.7965 25.2784H51.2738V20.8221H53.7334V21.586H52.1567V22.6683H53.6704V23.4322H52.1567V24.6418H53.7965V25.2784ZM57.2021 25.2784H56.3192V21.5223H55.5624C55.5624 22.0316 55.5624 22.4773 55.5624 22.9229C55.5624 23.3049 55.4993 23.6232 55.4993 23.9415C55.4363 24.1961 55.4363 24.4508 55.3732 24.6418C55.3101 24.8327 55.2471 24.9601 55.1209 25.0874C55.0579 25.2147 54.9317 25.2784 54.8056 25.2784C54.6794 25.342 54.5533 25.342 54.3641 25.342C54.301 25.342 54.238 25.342 54.1749 25.342C54.1118 25.342 54.0488 25.342 53.9857 25.342V24.5781H54.0488H54.1118C54.1749 24.5781 54.238 24.5781 54.301 24.5781C54.3641 24.5781 54.4272 24.5144 54.4902 24.4508C54.5533 24.3871 54.5533 24.2598 54.6164 24.1325C54.6794 24.0051 54.6794 23.7505 54.6794 23.4959C54.6794 23.2412 54.7425 22.8592 54.7425 22.4773C54.7425 22.0316 54.7425 21.5223 54.7425 20.8857H57.2652V25.2784H57.2021ZM60.5447 24.5144C60.4816 24.7054 60.4186 24.8327 60.2924 24.9601C60.1663 25.0874 60.0402 25.1511 59.851 25.2147C59.6618 25.2784 59.4726 25.2784 59.2834 25.2784H57.8959V20.8221H58.7788V22.5409H59.2203C59.4726 22.5409 59.6618 22.5409 59.851 22.6046C60.0402 22.6683 60.1663 22.7319 60.2924 22.8592C60.4186 22.9866 60.4816 23.1139 60.5447 23.3049C60.6078 23.4959 60.6708 23.6868 60.6708 23.9415C60.6078 24.1325 60.6078 24.3235 60.5447 24.5144ZM63.8873 25.2784H63.0043V23.3049H61.9322V25.2784H61.0493V20.8221H61.9322V22.5409H63.0043V20.8221H63.8873V25.2784ZM67.0407 25.2784H64.518V20.8221H66.9776V21.586H65.4009V22.6683H66.9145V23.4322H65.4009V24.6418H67.0407V25.2784ZM71.8969 24.0051C71.8969 24.2598 71.7707 24.5144 71.7076 24.7054C71.5815 24.8964 71.4554 25.0874 71.2662 25.1511C71.077 25.2784 70.8247 25.342 70.4463 25.342C70.131 25.342 69.8156 25.2784 69.6264 25.1511C69.4372 25.0237 69.248 24.8964 69.185 24.7054C69.0588 24.5144 68.9958 24.2598 68.9958 24.0051C68.9958 23.7505 68.9327 23.4322 68.9327 23.0502C68.9327 22.7319 68.9327 22.4136 68.9958 22.0953C68.9958 21.8407 69.1219 21.586 69.185 21.3314C69.3111 21.1404 69.4372 20.9494 69.6264 20.8221C69.8156 20.6947 70.0679 20.6311 70.4463 20.6311C70.7616 20.6311 71.077 20.6947 71.2662 20.8221C71.4554 20.9494 71.6446 21.0767 71.7076 21.3314C71.8338 21.5223 71.8969 21.777 71.8969 22.0953C71.8969 22.3499 71.9599 22.6683 71.9599 23.0502C71.8969 23.3685 71.8969 23.6868 71.8969 24.0051ZM75.1764 24.5144C75.1133 24.7054 74.9872 24.8327 74.861 24.9601C74.7349 25.0874 74.6087 25.1511 74.4195 25.2147C74.2303 25.2784 74.0411 25.2784 73.7889 25.2784H72.4014V20.8221H74.9872V21.586H73.2843V22.5409H73.8519C74.1042 22.5409 74.2934 22.5409 74.4195 22.6046C74.6087 22.6683 74.7349 22.7319 74.861 22.8592C74.9872 22.9866 75.0502 23.1139 75.1133 23.3049C75.1764 23.4959 75.2394 23.6868 75.2394 23.9415C75.3025 24.1325 75.2394 24.3235 75.1764 24.5144ZM78.8343 25.2784H77.9513V21.5223H77.1945C77.1945 22.0316 77.1945 22.4773 77.1945 22.9229C77.1945 23.3049 77.1314 23.6232 77.1314 23.9415C77.0684 24.1961 77.0684 24.4508 77.0053 24.6418C76.9422 24.8327 76.8792 24.9601 76.753 25.0874C76.69 25.2147 76.5638 25.2784 76.4377 25.2784C76.3116 25.342 76.1854 25.342 75.9962 25.342C75.9332 25.342 75.8701 25.342 75.807 25.342C75.744 25.342 75.6809 25.342 75.6178 25.342V24.5781H75.6809H75.744C75.807 24.5781 75.8701 24.5781 75.9332 24.5781C75.9962 24.5781 76.0593 24.5144 76.1224 24.4508C76.1854 24.3871 76.1854 24.2598 76.2485 24.1325C76.3116 24.0051 76.3116 23.7505 76.3116 23.4959C76.3116 23.2412 76.3746 22.8592 76.3746 22.4773C76.3746 22.0316 76.3746 21.5223 76.3746 20.8857H78.8973V25.2784H78.8343ZM86.3393 26.1696H85.5194V25.2784H83.3751V26.1696H82.5552V25.2784H81.6092L81.42 24.3235H80.2217L80.0325 25.2784H79.0865L80.2848 20.8221H81.357L82.5552 25.2784V24.5144H82.9336C83.0598 24.3235 83.1228 24.0688 83.1859 23.8778C83.249 23.6868 83.3121 23.4959 83.3121 23.2412C83.3121 23.0502 83.3751 22.7956 83.3751 22.6046C83.3751 22.3499 83.3751 22.159 83.3751 21.8407V20.7584H85.9609V24.5144H86.4024V26.1696H86.3393ZM89.5557 25.2784H88.6728V23.3049H87.6006V25.2784H86.7177V20.8221H87.6006V22.5409H88.6728V20.8221H89.5557V25.2784ZM92.3938 25.2784L92.2046 24.3235H91.0063L90.8171 25.2784H89.8711L91.0693 20.8221H92.1415L93.3398 25.2784H92.3938ZM96.4301 25.2784H95.5471V23.3049H94.475V25.2784H93.592V20.8221H94.475V22.5409H95.5471V20.8221H96.4301V25.2784ZM99.8988 25.2784H99.0158V23.3049H97.9437V25.2784H97.0607V20.8221H97.9437V22.5409H99.0158V20.8221H99.8988V25.2784ZM103.241 25.2784H102.358V23.5595H102.043L101.223 25.2784H100.214L101.16 23.4322C100.908 23.3685 100.719 23.1775 100.593 22.9866C100.466 22.7956 100.403 22.4773 100.403 22.159C100.403 21.9043 100.466 21.7133 100.529 21.5223C100.593 21.3314 100.719 21.204 100.782 21.0767C100.908 20.9494 101.034 20.8857 101.223 20.8221C101.412 20.7584 101.602 20.7584 101.791 20.7584H103.241V25.2784Z" fill="#0257A3"/>
<path d="M37.525 23.3685C37.3988 23.3049 37.2096 23.2412 37.0204 23.2412H36.7051V24.6418H37.0204C37.1465 24.6418 37.2727 24.6418 37.3358 24.6418C37.3988 24.6418 37.525 24.5781 37.588 24.5144C37.6511 24.4508 37.7142 24.3871 37.7142 24.3235C37.7142 24.2598 37.7772 24.1325 37.7772 23.9415C37.7142 23.6232 37.6511 23.4322 37.525 23.3685Z" fill="#0257A3"/>
<path d="M43.7065 22.2864C43.7065 22.4774 43.7065 22.6684 43.7065 22.8594C43.7065 23.0503 43.7065 23.2413 43.6435 23.4323C43.6435 23.6233 43.5804 23.8143 43.5173 24.0053C43.4543 24.1962 43.3912 24.3872 43.3281 24.5146H44.5264V21.5225H43.7065V22.2864Z" fill="#0257A3"/>
<path d="M84.2573 22.2864C84.2573 22.4774 84.2573 22.6684 84.2573 22.8594C84.2573 23.0503 84.2573 23.2413 84.1942 23.4323C84.1942 23.6233 84.1312 23.8143 84.0681 24.0053C84.005 24.1962 83.942 24.3872 83.8789 24.5146H85.0772V21.5225H84.2573V22.2864Z" fill="#0257A3"/>
<path d="M91.5743 21.5859L91.1328 23.6231H92.0158L91.5743 21.5859Z" fill="#0257A3"/>
<path d="M49.5088 22.541C49.6349 22.4774 49.698 22.2864 49.698 22.0954C49.698 21.9044 49.6349 21.7134 49.5718 21.6498C49.4457 21.5861 49.3196 21.5225 49.0673 21.5225H48.752V22.6684H49.0042C49.2565 22.6684 49.3826 22.6047 49.5088 22.541Z" fill="#0257A3"/>
<path d="M80.8516 21.5859L80.4102 23.6231H81.2931L80.8516 21.5859Z" fill="#0257A3"/>
<path d="M32.2266 21.5859L31.7852 23.6231H32.6681L32.2266 21.5859Z" fill="#0257A3"/>
<path d="M49.5718 23.432C49.5088 23.3683 49.4457 23.3683 49.3826 23.3047C49.3196 23.3047 49.1934 23.3047 49.1304 23.3047H48.752V24.6416H49.0673C49.2565 24.6416 49.4457 24.5779 49.5718 24.5143C49.698 24.3869 49.761 24.2596 49.761 24.005C49.761 23.8776 49.761 23.7503 49.698 23.6867C49.698 23.5593 49.6349 23.4957 49.5718 23.432Z" fill="#0257A3"/>
</g>
<path d="M121.989 8.5H121.091V2.16211H118.308V8.5H117.414V1.39062H121.989V8.5ZM127.127 6.1123C127.127 6.94889 126.976 7.57227 126.673 7.98242C126.374 8.39258 125.949 8.59766 125.399 8.59766C124.868 8.59766 124.46 8.39746 124.173 7.99707V10.5312H123.314V3.2168H124.095L124.139 3.80273C124.429 3.34701 124.844 3.11914 125.384 3.11914C125.964 3.11914 126.397 3.32096 126.683 3.72461C126.969 4.12826 127.118 4.7321 127.127 5.53613V6.1123ZM126.268 5.61914C126.268 5.02669 126.177 4.59049 125.995 4.31055C125.812 4.02734 125.519 3.88574 125.116 3.88574C124.702 3.88574 124.388 4.09245 124.173 4.50586V7.25488C124.385 7.65853 124.702 7.86035 125.125 7.86035C125.516 7.86035 125.802 7.72038 125.985 7.44043C126.17 7.15723 126.265 6.72591 126.268 6.14648V5.61914ZM127.91 5.61426C127.91 4.84603 128.096 4.23893 128.467 3.79297C128.841 3.34375 129.334 3.11914 129.946 3.11914C130.558 3.11914 131.05 3.33724 131.421 3.77344C131.795 4.20964 131.987 4.80371 131.997 5.55566V6.1123C131.997 6.87728 131.811 7.48275 131.44 7.92871C131.069 8.37467 130.574 8.59766 129.956 8.59766C129.344 8.59766 128.852 8.38118 128.481 7.94824C128.113 7.5153 127.923 6.92936 127.91 6.19043V5.61426ZM128.774 6.1123C128.774 6.65592 128.88 7.08398 129.092 7.39648C129.306 7.70573 129.595 7.86035 129.956 7.86035C130.718 7.86035 131.11 7.31022 131.133 6.20996V5.61426C131.133 5.07389 131.025 4.64746 130.81 4.33496C130.596 4.01921 130.307 3.86133 129.946 3.86133C129.591 3.86133 129.306 4.01921 129.092 4.33496C128.88 4.64746 128.774 5.07227 128.774 5.60938V6.1123ZM132.599 7.7627L132.858 7.3916C133.138 6.96191 133.299 6.32878 133.341 5.49219L133.414 3.2168H136.363V7.7627H136.979V10.0527H136.114V8.5H133.112V10.0527H132.242L132.247 7.7627H132.599ZM133.561 7.7627H135.504V4.05176H134.254L134.21 5.34082C134.165 6.36947 133.948 7.17676 133.561 7.7627ZM140.54 8.5C140.488 8.38607 140.45 8.19401 140.427 7.92383C140.121 8.37305 139.731 8.59766 139.255 8.59766C138.777 8.59766 138.403 8.46419 138.132 8.19727C137.865 7.92708 137.732 7.54785 137.732 7.05957C137.732 6.52246 137.914 6.09603 138.279 5.78027C138.643 5.46452 139.143 5.30339 139.778 5.29688H140.413V4.73535C140.413 4.4196 140.343 4.19499 140.203 4.06152C140.063 3.92806 139.85 3.86133 139.563 3.86133C139.303 3.86133 139.091 3.93945 138.928 4.0957C138.766 4.2487 138.684 4.44401 138.684 4.68164H137.82C137.82 4.41146 137.9 4.1543 138.059 3.91016C138.219 3.66276 138.434 3.46908 138.704 3.3291C138.974 3.18913 139.275 3.11914 139.607 3.11914C140.147 3.11914 140.558 3.25423 140.837 3.52441C141.121 3.79134 141.266 4.18197 141.272 4.69629V7.3623C141.275 7.76921 141.331 8.1224 141.438 8.42188V8.5H140.54ZM139.387 7.81152C139.599 7.81152 139.801 7.75293 139.993 7.63574C140.185 7.51855 140.325 7.37207 140.413 7.19629V5.93652H139.924C139.514 5.94303 139.19 6.03581 138.953 6.21484C138.715 6.39062 138.596 6.63802 138.596 6.95703C138.596 7.25651 138.657 7.47461 138.777 7.61133C138.897 7.74479 139.101 7.81152 139.387 7.81152ZM146.054 6.20508H145.551V8.5H144.691V6.20508H144.188L143.085 8.5H142.001L143.52 5.74609L142.133 3.2168H143.173L144.198 5.4043H144.691V3.2168H145.551V5.4043H146.034L147.074 3.2168H148.114L146.723 5.75098L148.241 8.5H147.152L146.054 6.20508ZM154.421 3.94922H152.98V8.5H152.121V3.94922H150.7V3.2168H154.421V3.94922ZM157.821 8.5C157.768 8.38607 157.731 8.19401 157.708 7.92383C157.402 8.37305 157.012 8.59766 156.536 8.59766C156.058 8.59766 155.683 8.46419 155.413 8.19727C155.146 7.92708 155.013 7.54785 155.013 7.05957C155.013 6.52246 155.195 6.09603 155.56 5.78027C155.924 5.46452 156.424 5.30339 157.059 5.29688H157.694V4.73535C157.694 4.4196 157.624 4.19499 157.484 4.06152C157.344 3.92806 157.13 3.86133 156.844 3.86133C156.584 3.86133 156.372 3.93945 156.209 4.0957C156.046 4.2487 155.965 4.44401 155.965 4.68164H155.101C155.101 4.41146 155.181 4.1543 155.34 3.91016C155.5 3.66276 155.714 3.46908 155.985 3.3291C156.255 3.18913 156.556 3.11914 156.888 3.11914C157.428 3.11914 157.838 3.25423 158.118 3.52441C158.402 3.79134 158.546 4.18197 158.553 4.69629V7.3623C158.556 7.76921 158.612 8.1224 158.719 8.42188V8.5H157.821ZM156.668 7.81152C156.88 7.81152 157.082 7.75293 157.274 7.63574C157.466 7.51855 157.606 7.37207 157.694 7.19629V5.93652H157.205C156.795 5.94303 156.471 6.03581 156.234 6.21484C155.996 6.39062 155.877 6.63802 155.877 6.95703C155.877 7.25651 155.937 7.47461 156.058 7.61133C156.178 7.74479 156.382 7.81152 156.668 7.81152ZM163.727 7.86035C164.013 7.86035 164.243 7.77246 164.415 7.59668C164.588 7.41764 164.682 7.16374 164.698 6.83496H165.514C165.494 7.34277 165.313 7.76432 164.972 8.09961C164.633 8.43164 164.218 8.59766 163.727 8.59766C163.072 8.59766 162.573 8.39258 162.228 7.98242C161.886 7.56901 161.715 6.9554 161.715 6.1416V5.56055C161.715 4.76302 161.886 4.15755 162.228 3.74414C162.569 3.32747 163.067 3.11914 163.722 3.11914C164.262 3.11914 164.69 3.29004 165.006 3.63184C165.325 3.97363 165.494 4.44076 165.514 5.0332H164.698C164.679 4.64258 164.584 4.34961 164.415 4.1543C164.249 3.95898 164.018 3.86133 163.722 3.86133C163.338 3.86133 163.053 3.98828 162.867 4.24219C162.682 4.49284 162.586 4.90625 162.579 5.48242V6.15625C162.579 6.77799 162.67 7.21745 162.853 7.47461C163.038 7.73177 163.329 7.86035 163.727 7.86035ZM168.249 8.59766C167.592 8.59766 167.087 8.40234 166.736 8.01172C166.384 7.61784 166.205 7.04167 166.199 6.2832V5.64355C166.199 4.85579 166.37 4.23893 166.711 3.79297C167.056 3.34375 167.537 3.11914 168.152 3.11914C168.77 3.11914 169.232 3.31608 169.538 3.70996C169.844 4.10384 170.001 4.71745 170.007 5.55078V6.11719H167.058V6.23926C167.058 6.80566 167.164 7.21745 167.375 7.47461C167.59 7.73177 167.898 7.86035 168.298 7.86035C168.552 7.86035 168.775 7.81315 168.967 7.71875C169.162 7.62109 169.345 7.4681 169.514 7.25977L169.963 7.80664C169.589 8.33398 169.018 8.59766 168.249 8.59766ZM168.152 3.86133C167.794 3.86133 167.528 3.98503 167.356 4.23242C167.183 4.47656 167.086 4.85742 167.063 5.375H169.143V5.25781C169.12 4.75651 169.029 4.39844 168.87 4.18359C168.713 3.96875 168.474 3.86133 168.152 3.86133ZM174.716 6.1123C174.716 6.94889 174.564 7.57227 174.262 7.98242C173.962 8.39258 173.537 8.59766 172.987 8.59766C172.457 8.59766 172.048 8.39746 171.762 7.99707V10.5312H170.902V3.2168H171.683L171.727 3.80273C172.017 3.34701 172.432 3.11914 172.972 3.11914C173.552 3.11914 173.985 3.32096 174.271 3.72461C174.558 4.12826 174.706 4.7321 174.716 5.53613V6.1123ZM173.856 5.61914C173.856 5.02669 173.765 4.59049 173.583 4.31055C173.401 4.02734 173.108 3.88574 172.704 3.88574C172.29 3.88574 171.976 4.09245 171.762 4.50586V7.25488C171.973 7.65853 172.29 7.86035 172.714 7.86035C173.104 7.86035 173.391 7.72038 173.573 7.44043C173.759 7.15723 173.853 6.72591 173.856 6.14648V5.61914ZM175.757 8.5V3.2168H177.529C178.135 3.2168 178.597 3.34049 178.916 3.58789C179.235 3.83529 179.395 4.19499 179.395 4.66699C179.395 4.91113 179.331 5.13086 179.204 5.32617C179.077 5.52148 178.892 5.67122 178.648 5.77539C178.918 5.84701 179.134 5.99186 179.297 6.20996C179.463 6.42806 179.546 6.69173 179.546 7.00098C179.546 7.48926 179.393 7.86198 179.087 8.11914C178.784 8.37305 178.355 8.5 177.798 8.5H175.757ZM176.616 6.18066V7.77246H177.808C178.39 7.77246 178.682 7.50553 178.682 6.97168C178.682 6.44434 178.387 6.18066 177.798 6.18066H176.616ZM176.616 5.45801H177.52C178.194 5.45801 178.53 5.21061 178.53 4.71582C178.53 4.21777 178.213 3.96224 177.578 3.94922H176.616V5.45801ZM181.501 8.5H180.636V3.2168H181.501V8.5ZM181.569 1.81543C181.569 1.96191 181.528 2.08398 181.447 2.18164C181.365 2.2793 181.242 2.32812 181.076 2.32812C180.913 2.32812 180.791 2.2793 180.71 2.18164C180.628 2.08398 180.588 1.96191 180.588 1.81543C180.588 1.66895 180.628 1.54525 180.71 1.44434C180.791 1.34342 180.913 1.29297 181.076 1.29297C181.239 1.29297 181.361 1.34505 181.442 1.44922C181.527 1.55013 181.569 1.6722 181.569 1.81543ZM184.549 7.86035C184.835 7.86035 185.065 7.77246 185.237 7.59668C185.41 7.41764 185.504 7.16374 185.521 6.83496H186.336C186.316 7.34277 186.136 7.76432 185.794 8.09961C185.455 8.43164 185.04 8.59766 184.549 8.59766C183.895 8.59766 183.395 8.39258 183.05 7.98242C182.708 7.56901 182.537 6.9554 182.537 6.1416V5.56055C182.537 4.76302 182.708 4.15755 183.05 3.74414C183.392 3.32747 183.89 3.11914 184.544 3.11914C185.084 3.11914 185.512 3.29004 185.828 3.63184C186.147 3.97363 186.316 4.44076 186.336 5.0332H185.521C185.501 4.64258 185.407 4.34961 185.237 4.1543C185.071 3.95898 184.84 3.86133 184.544 3.86133C184.16 3.86133 183.875 3.98828 183.689 4.24219C183.504 4.49284 183.408 4.90625 183.401 5.48242V6.15625C183.401 6.77799 183.493 7.21745 183.675 7.47461C183.86 7.73177 184.152 7.86035 184.549 7.86035ZM190.893 8.5H190.034V6.24414H188.129V8.5H187.26V3.2168H188.129V5.50684H190.034V3.2168H190.893V8.5ZM194.01 8.59766C193.352 8.59766 192.847 8.40234 192.496 8.01172C192.144 7.61784 191.965 7.04167 191.959 6.2832V5.64355C191.959 4.85579 192.13 4.23893 192.471 3.79297C192.817 3.34375 193.297 3.11914 193.912 3.11914C194.53 3.11914 194.993 3.31608 195.299 3.70996C195.605 4.10384 195.761 4.71745 195.767 5.55078V6.11719H192.818V6.23926C192.818 6.80566 192.924 7.21745 193.136 7.47461C193.35 7.73177 193.658 7.86035 194.058 7.86035C194.312 7.86035 194.535 7.81315 194.727 7.71875C194.923 7.62109 195.105 7.4681 195.274 7.25977L195.723 7.80664C195.349 8.33398 194.778 8.59766 194.01 8.59766ZM193.912 3.86133C193.554 3.86133 193.289 3.98503 193.116 4.23242C192.943 4.47656 192.846 4.85742 192.823 5.375H194.903V5.25781C194.88 4.75651 194.789 4.39844 194.63 4.18359C194.473 3.96875 194.234 3.86133 193.912 3.86133ZM117.067 14.6143C117.067 13.846 117.253 13.2389 117.624 12.793C117.998 12.3438 118.492 12.1191 119.104 12.1191C119.715 12.1191 120.207 12.3372 120.578 12.7734C120.952 13.2096 121.145 13.8037 121.154 14.5557V15.1123C121.154 15.8773 120.969 16.4827 120.598 16.9287C120.227 17.3747 119.732 17.5977 119.113 17.5977C118.501 17.5977 118.01 17.3812 117.639 16.9482C117.271 16.5153 117.08 15.9294 117.067 15.1904V14.6143ZM117.932 15.1123C117.932 15.6559 118.037 16.084 118.249 16.3965C118.464 16.7057 118.752 16.8604 119.113 16.8604C119.875 16.8604 120.267 16.3102 120.29 15.21V14.6143C120.29 14.0739 120.183 13.6475 119.968 13.335C119.753 13.0192 119.465 12.8613 119.104 12.8613C118.749 12.8613 118.464 13.0192 118.249 13.335C118.037 13.6475 117.932 14.0723 117.932 14.6094V15.1123ZM124.129 12.5195C124.686 12.5195 125.129 12.7409 125.457 13.1836C125.786 13.623 125.951 14.2122 125.951 14.9512V15.0244C125.951 15.8057 125.768 16.4307 125.404 16.8994C125.039 17.3649 124.557 17.5977 123.958 17.5977C123.359 17.5977 122.878 17.3617 122.513 16.8896C122.149 16.4176 121.966 15.7829 121.966 14.9854V14.541C121.966 13.4505 122.137 12.5781 122.479 11.9238C122.821 11.2663 123.322 10.861 123.983 10.708C124.364 10.6201 124.621 10.516 124.754 10.3955C124.891 10.2751 124.959 10.1156 124.959 9.91699H125.658L125.653 10.1074C125.614 10.752 125.304 11.1605 124.725 11.333L124.129 11.499C123.7 11.6162 123.369 11.8229 123.138 12.1191C122.91 12.4154 122.762 12.8027 122.694 13.2812C123.091 12.7734 123.569 12.5195 124.129 12.5195ZM123.954 13.2617C123.608 13.2617 123.335 13.4082 123.133 13.7012C122.935 13.9941 122.835 14.4352 122.835 15.0244C122.835 15.5973 122.935 16.0482 123.133 16.377C123.332 16.7025 123.607 16.8652 123.958 16.8652C124.31 16.8652 124.587 16.7008 124.788 16.3721C124.99 16.0433 125.091 15.5566 125.091 14.9121C125.091 14.4043 124.989 14.0023 124.784 13.7061C124.582 13.4098 124.305 13.2617 123.954 13.2617ZM128.647 16.8604C128.934 16.8604 129.163 16.7725 129.336 16.5967C129.508 16.4176 129.603 16.1637 129.619 15.835H130.434C130.415 16.3428 130.234 16.7643 129.892 17.0996C129.554 17.4316 129.139 17.5977 128.647 17.5977C127.993 17.5977 127.493 17.3926 127.148 16.9824C126.806 16.569 126.636 15.9554 126.636 15.1416V14.5605C126.636 13.763 126.806 13.1576 127.148 12.7441C127.49 12.3275 127.988 12.1191 128.642 12.1191C129.183 12.1191 129.611 12.29 129.927 12.6318C130.246 12.9736 130.415 13.4408 130.434 14.0332H129.619C129.599 13.6426 129.505 13.3496 129.336 13.1543C129.17 12.959 128.939 12.8613 128.642 12.8613C128.258 12.8613 127.973 12.9883 127.788 13.2422C127.602 13.4928 127.506 13.9062 127.5 14.4824V15.1562C127.5 15.778 127.591 16.2174 127.773 16.4746C127.959 16.7318 128.25 16.8604 128.647 16.8604ZM135.006 12.2168V17.5H134.142V12.9639H132.75L132.667 14.7559C132.622 15.7487 132.488 16.4535 132.267 16.8701C132.045 17.2835 131.691 17.4935 131.202 17.5H130.914V16.7041L131.134 16.6846C131.375 16.652 131.544 16.4909 131.642 16.2012C131.743 15.9082 131.809 15.3337 131.842 14.4775L131.925 12.2168H135.006ZM137.673 16.0645L138.635 12.2168H139.553L137.825 18.2471C137.695 18.6995 137.511 19.043 137.273 19.2773C137.035 19.515 136.765 19.6338 136.462 19.6338C136.345 19.6338 136.196 19.6077 136.013 19.5557V18.8232L136.204 18.8428C136.454 18.8428 136.65 18.7826 136.79 18.6621C136.933 18.5449 137.048 18.3398 137.136 18.0469L137.307 17.4561L135.754 12.2168H136.697L137.673 16.0645ZM143.153 12.9639H141.186V17.5H140.316V12.2168H143.153V12.9639ZM143.531 14.6143C143.531 13.846 143.716 13.2389 144.087 12.793C144.462 12.3438 144.955 12.1191 145.567 12.1191C146.179 12.1191 146.67 12.3372 147.041 12.7734C147.416 13.2096 147.608 13.8037 147.618 14.5557V15.1123C147.618 15.8773 147.432 16.4827 147.061 16.9287C146.69 17.3747 146.195 17.5977 145.577 17.5977C144.965 17.5977 144.473 17.3812 144.102 16.9482C143.734 16.5153 143.544 15.9294 143.531 15.1904V14.6143ZM144.395 15.1123C144.395 15.6559 144.501 16.084 144.712 16.3965C144.927 16.7057 145.215 16.8604 145.577 16.8604C146.338 16.8604 146.731 16.3102 146.753 15.21V14.6143C146.753 14.0739 146.646 13.6475 146.431 13.335C146.216 13.0192 145.928 12.8613 145.567 12.8613C145.212 12.8613 144.927 13.0192 144.712 13.335C144.501 13.6475 144.395 14.0723 144.395 14.6094V15.1123ZM148.659 17.5V12.2168H150.431C151.037 12.2168 151.499 12.3405 151.818 12.5879C152.137 12.8353 152.297 13.195 152.297 13.667C152.297 13.9111 152.233 14.1309 152.106 14.3262C151.979 14.5215 151.794 14.6712 151.55 14.7754C151.82 14.847 152.036 14.9919 152.199 15.21C152.365 15.4281 152.448 15.6917 152.448 16.001C152.448 16.4893 152.295 16.862 151.989 17.1191C151.686 17.373 151.257 17.5 150.7 17.5H148.659ZM149.518 15.1807V16.7725H150.71C151.292 16.7725 151.584 16.5055 151.584 15.9717C151.584 15.4443 151.289 15.1807 150.7 15.1807H149.518ZM149.518 14.458H150.422C151.096 14.458 151.432 14.2106 151.432 13.7158C151.432 13.2178 151.115 12.9622 150.48 12.9492H149.518V14.458ZM154.857 16.0645L155.819 12.2168H156.737L155.008 18.2471C154.878 18.6995 154.694 19.043 154.456 19.2773C154.219 19.515 153.948 19.6338 153.646 19.6338C153.529 19.6338 153.379 19.6077 153.196 19.5557V18.8232L153.387 18.8428C153.638 18.8428 153.833 18.7826 153.973 18.6621C154.116 18.5449 154.232 18.3398 154.32 18.0469L154.49 17.4561L152.938 12.2168H153.88L154.857 16.0645ZM157.509 17.5V12.2168H159.282C159.887 12.2168 160.35 12.3405 160.669 12.5879C160.988 12.8353 161.147 13.195 161.147 13.667C161.147 13.9111 161.084 14.1309 160.957 14.3262C160.83 14.5215 160.644 14.6712 160.4 14.7754C160.67 14.847 160.887 14.9919 161.049 15.21C161.215 15.4281 161.298 15.6917 161.298 16.001C161.298 16.4893 161.145 16.862 160.839 17.1191C160.537 17.373 160.107 17.5 159.55 17.5H157.509ZM158.369 15.1807V16.7725H159.56C160.143 16.7725 160.434 16.5055 160.434 15.9717C160.434 15.4443 160.14 15.1807 159.55 15.1807H158.369ZM158.369 14.458H159.272C159.946 14.458 160.283 14.2106 160.283 13.7158C160.283 13.2178 159.965 12.9622 159.331 12.9492H158.369V14.458ZM165.04 17.5C164.988 17.3861 164.951 17.194 164.928 16.9238C164.622 17.373 164.231 17.5977 163.756 17.5977C163.277 17.5977 162.903 17.4642 162.633 17.1973C162.366 16.9271 162.232 16.5479 162.232 16.0596C162.232 15.5225 162.415 15.096 162.779 14.7803C163.144 14.4645 163.644 14.3034 164.278 14.2969H164.913V13.7354C164.913 13.4196 164.843 13.195 164.703 13.0615C164.563 12.9281 164.35 12.8613 164.063 12.8613C163.803 12.8613 163.591 12.9395 163.429 13.0957C163.266 13.2487 163.185 13.444 163.185 13.6816H162.32C162.32 13.4115 162.4 13.1543 162.56 12.9102C162.719 12.6628 162.934 12.4691 163.204 12.3291C163.474 12.1891 163.775 12.1191 164.107 12.1191C164.648 12.1191 165.058 12.2542 165.338 12.5244C165.621 12.7913 165.766 13.182 165.772 13.6963V16.3623C165.776 16.7692 165.831 17.1224 165.938 17.4219V17.5H165.04ZM163.888 16.8115C164.099 16.8115 164.301 16.7529 164.493 16.6357C164.685 16.5186 164.825 16.3721 164.913 16.1963V14.9365H164.425C164.015 14.943 163.691 15.0358 163.453 15.2148C163.215 15.3906 163.097 15.638 163.097 15.957C163.097 16.2565 163.157 16.4746 163.277 16.6113C163.398 16.7448 163.601 16.8115 163.888 16.8115ZM170.676 17.5H169.817V15.2441H167.912V17.5H167.043V12.2168H167.912V14.5068H169.817V12.2168H170.676V17.5ZM175.614 17.5H174.755V15.2441H172.85V17.5H171.981V12.2168H172.85V14.5068H174.755V12.2168H175.614V17.5ZM180.293 12.2168V17.5H179.429V15.4443H178.408L177.344 17.5H176.416L177.559 15.293C177.272 15.1693 177.054 14.9788 176.904 14.7217C176.755 14.4645 176.68 14.1667 176.68 13.8281C176.68 13.3431 176.836 12.9541 177.149 12.6611C177.461 12.3649 177.881 12.2168 178.408 12.2168H180.293ZM177.544 13.8379C177.544 14.0983 177.614 14.3083 177.754 14.4678C177.894 14.624 178.083 14.7021 178.321 14.7021H179.429V12.9492H178.399C178.141 12.9492 177.935 13.0322 177.779 13.1982C177.622 13.361 177.544 13.5742 177.544 13.8379ZM187.371 17.5H186.512V15.2441H184.607V17.5H183.738V12.2168H184.607V14.5068H186.512V12.2168H187.371V17.5ZM191.318 17.5C191.266 17.3861 191.228 17.194 191.205 16.9238C190.899 17.373 190.509 17.5977 190.034 17.5977C189.555 17.5977 189.181 17.4642 188.911 17.1973C188.644 16.9271 188.51 16.5479 188.51 16.0596C188.51 15.5225 188.692 15.096 189.057 14.7803C189.422 14.4645 189.921 14.3034 190.556 14.2969H191.191V13.7354C191.191 13.4196 191.121 13.195 190.981 13.0615C190.841 12.9281 190.628 12.8613 190.341 12.8613C190.081 12.8613 189.869 12.9395 189.706 13.0957C189.544 13.2487 189.462 13.444 189.462 13.6816H188.598C188.598 13.4115 188.678 13.1543 188.837 12.9102C188.997 12.6628 189.212 12.4691 189.482 12.3291C189.752 12.1891 190.053 12.1191 190.385 12.1191C190.926 12.1191 191.336 12.2542 191.616 12.5244C191.899 12.7913 192.044 13.182 192.05 13.6963V16.3623C192.053 16.7692 192.109 17.1224 192.216 17.4219V17.5H191.318ZM190.165 16.8115C190.377 16.8115 190.579 16.7529 190.771 16.6357C190.963 16.5186 191.103 16.3721 191.191 16.1963V14.9365H190.703C190.292 14.943 189.968 15.0358 189.731 15.2148C189.493 15.3906 189.374 15.638 189.374 15.957C189.374 16.2565 189.435 16.4746 189.555 16.6113C189.676 16.7448 189.879 16.8115 190.165 16.8115ZM193.233 16.7627L193.492 16.3916C193.772 15.9619 193.933 15.3288 193.975 14.4922L194.049 12.2168H196.998V16.7627H197.613V19.0527H196.749V17.5H193.746V19.0527H192.877L192.882 16.7627H193.233ZM194.195 16.7627H196.138V13.0518H194.888L194.845 14.3408C194.799 15.3695 194.582 16.1768 194.195 16.7627ZM201.174 17.5C201.122 17.3861 201.085 17.194 201.062 16.9238C200.756 17.373 200.365 17.5977 199.89 17.5977C199.411 17.5977 199.037 17.4642 198.767 17.1973C198.5 16.9271 198.366 16.5479 198.366 16.0596C198.366 15.5225 198.549 15.096 198.913 14.7803C199.278 14.4645 199.778 14.3034 200.412 14.2969H201.047V13.7354C201.047 13.4196 200.977 13.195 200.837 13.0615C200.697 12.9281 200.484 12.8613 200.197 12.8613C199.937 12.8613 199.725 12.9395 199.563 13.0957C199.4 13.2487 199.319 13.444 199.319 13.6816H198.454C198.454 13.4115 198.534 13.1543 198.694 12.9102C198.853 12.6628 199.068 12.4691 199.338 12.3291C199.608 12.1891 199.909 12.1191 200.241 12.1191C200.782 12.1191 201.192 12.2542 201.472 12.5244C201.755 12.7913 201.9 13.182 201.906 13.6963V16.3623C201.91 16.7692 201.965 17.1224 202.072 17.4219V17.5H201.174ZM200.022 16.8115C200.233 16.8115 200.435 16.7529 200.627 16.6357C200.819 16.5186 200.959 16.3721 201.047 16.1963V14.9365H200.559C200.149 14.943 199.825 15.0358 199.587 15.2148C199.349 15.3906 199.231 15.638 199.231 15.957C199.231 16.2565 199.291 16.4746 199.411 16.6113C199.532 16.7448 199.735 16.8115 200.022 16.8115ZM204.969 16.8604C205.223 16.8604 205.445 16.7627 205.633 16.5674C205.822 16.3721 205.926 16.1279 205.946 15.835H206.761C206.748 16.141 206.66 16.4307 206.498 16.7041C206.335 16.9743 206.115 17.1908 205.838 17.3535C205.562 17.5163 205.272 17.5977 204.969 17.5977C204.351 17.5977 203.863 17.36 203.504 16.8848C203.146 16.4062 202.967 15.7471 202.967 14.9072V14.7559C202.967 13.9486 203.148 13.3073 203.509 12.832C203.871 12.3568 204.359 12.1191 204.974 12.1191C205.492 12.1191 205.913 12.2982 206.239 12.6562C206.568 13.0143 206.742 13.4733 206.761 14.0332H205.946C205.926 13.6914 205.827 13.4115 205.648 13.1934C205.469 12.972 205.244 12.8613 204.974 12.8613C204.636 12.8613 204.367 13.0013 204.169 13.2812C203.97 13.5612 203.858 13.9648 203.832 14.4922H205.355V15.2344H203.832C203.858 15.7747 203.968 16.1816 204.164 16.4551C204.359 16.7253 204.628 16.8604 204.969 16.8604ZM211.016 12.9492H209.575V17.5H208.716V12.9492H207.295V12.2168H211.016V12.9492ZM212.711 14.0381H213.8C214.305 14.0413 214.707 14.196 215.006 14.502C215.306 14.8079 215.455 15.2246 215.455 15.752C215.455 16.2793 215.304 16.7025 215.001 17.0215C214.699 17.3372 214.298 17.4967 213.8 17.5H211.852V12.2168H212.711V14.0381ZM212.711 14.7754V16.7627H213.786C214.039 16.7627 214.236 16.6764 214.376 16.5039C214.52 16.3314 214.591 16.0921 214.591 15.7861C214.591 15.4867 214.521 15.2441 214.381 15.0586C214.241 14.873 214.049 14.7786 213.805 14.7754H212.711ZM218.245 16.8604C218.531 16.8604 218.761 16.7725 218.933 16.5967C219.106 16.4176 219.2 16.1637 219.217 15.835H220.032C220.012 16.3428 219.832 16.7643 219.49 17.0996C219.151 17.4316 218.736 17.5977 218.245 17.5977C217.591 17.5977 217.091 17.3926 216.746 16.9824C216.404 16.569 216.233 15.9554 216.233 15.1416V14.5605C216.233 13.763 216.404 13.1576 216.746 12.7441C217.088 12.3275 217.586 12.1191 218.24 12.1191C218.78 12.1191 219.208 12.29 219.524 12.6318C219.843 12.9736 220.012 13.4408 220.032 14.0332H219.217C219.197 13.6426 219.103 13.3496 218.933 13.1543C218.767 12.959 218.536 12.8613 218.24 12.8613C217.856 12.8613 217.571 12.9883 217.386 13.2422C217.2 13.4928 217.104 13.9062 217.097 14.4824V15.1562C217.097 15.778 217.189 16.2174 217.371 16.4746C217.556 16.7318 217.848 16.8604 218.245 16.8604ZM224.33 12.2168V17.5H223.466V15.4443H222.446L221.381 17.5H220.453L221.596 15.293C221.309 15.1693 221.091 14.9788 220.942 14.7217C220.792 14.4645 220.717 14.1667 220.717 13.8281C220.717 13.3431 220.873 12.9541 221.186 12.6611C221.498 12.3649 221.918 12.2168 222.446 12.2168H224.33ZM221.581 13.8379C221.581 14.0983 221.651 14.3083 221.791 14.4678C221.931 14.624 222.12 14.7021 222.358 14.7021H223.466V12.9492H222.436C222.179 12.9492 221.972 13.0322 221.816 13.1982C221.659 13.361 221.581 13.5742 221.581 13.8379ZM117.067 23.6143C117.067 22.846 117.253 22.2389 117.624 21.793C117.998 21.3438 118.492 21.1191 119.104 21.1191C119.715 21.1191 120.207 21.3372 120.578 21.7734C120.952 22.2096 121.145 22.8037 121.154 23.5557V24.1123C121.154 24.8773 120.969 25.4827 120.598 25.9287C120.227 26.3747 119.732 26.5977 119.113 26.5977C118.501 26.5977 118.01 26.3812 117.639 25.9482C117.271 25.5153 117.08 24.9294 117.067 24.1904V23.6143ZM117.932 24.1123C117.932 24.6559 118.037 25.084 118.249 25.3965C118.464 25.7057 118.752 25.8604 119.113 25.8604C119.875 25.8604 120.267 25.3102 120.29 24.21V23.6143C120.29 23.0739 120.183 22.6475 119.968 22.335C119.753 22.0192 119.465 21.8613 119.104 21.8613C118.749 21.8613 118.464 22.0192 118.249 22.335C118.037 22.6475 117.932 23.0723 117.932 23.6094V24.1123ZM121.961 23.9561C121.961 23.0771 122.105 22.3854 122.391 21.8809C122.677 21.373 123.073 21.1191 123.578 21.1191C123.786 21.1191 123.975 21.1549 124.144 21.2266V19H125.008V21.2559C125.19 21.1647 125.404 21.1191 125.648 21.1191C126.156 21.1191 126.553 21.3714 126.839 21.876C127.126 22.3805 127.269 23.1081 127.269 24.0586C127.269 24.8496 127.126 25.4714 126.839 25.9238C126.553 26.3763 126.159 26.6025 125.658 26.6025C125.41 26.6025 125.194 26.5602 125.008 26.4756V28.5312H124.144V26.5C123.965 26.5684 123.774 26.6025 123.573 26.6025C123.071 26.6025 122.677 26.3747 122.391 25.9189C122.105 25.46 121.961 24.8057 121.961 23.9561ZM126.41 23.9561C126.41 23.292 126.32 22.7777 126.141 22.4131C125.962 22.0452 125.71 21.8613 125.384 21.8613C125.244 21.8613 125.119 21.8857 125.008 21.9346V25.8066C125.109 25.8457 125.238 25.8652 125.394 25.8652C125.716 25.8652 125.965 25.709 126.141 25.3965C126.32 25.084 126.41 24.6038 126.41 23.9561ZM122.826 24.0586C122.826 24.6576 122.907 25.1084 123.07 25.4111C123.236 25.7139 123.478 25.8652 123.797 25.8652C123.927 25.8652 124.043 25.8473 124.144 25.8115V21.9199C124.027 21.8809 123.914 21.8613 123.807 21.8613C123.485 21.8613 123.241 22.0387 123.075 22.3936C122.909 22.7451 122.826 23.3001 122.826 24.0586ZM129.189 26.5H128.325V21.2168H129.189V26.5ZM129.258 19.8154C129.258 19.9619 129.217 20.084 129.136 20.1816C129.054 20.2793 128.93 20.3281 128.764 20.3281C128.602 20.3281 128.48 20.2793 128.398 20.1816C128.317 20.084 128.276 19.9619 128.276 19.8154C128.276 19.6689 128.317 19.5452 128.398 19.4443C128.48 19.3434 128.602 19.293 128.764 19.293C128.927 19.293 129.049 19.3451 129.131 19.4492C129.215 19.5501 129.258 19.6722 129.258 19.8154ZM130.48 21.2168H131.349V25.7627H133.258V21.2168H134.117V25.7627H134.674L134.586 28.0674H133.82V26.5H130.48V21.2168ZM136.428 26.5H135.564V21.2168H136.428V26.5ZM136.497 19.8154C136.497 19.9619 136.456 20.084 136.375 20.1816C136.293 20.2793 136.17 20.3281 136.004 20.3281C135.841 20.3281 135.719 20.2793 135.637 20.1816C135.556 20.084 135.515 19.9619 135.515 19.8154C135.515 19.6689 135.556 19.5452 135.637 19.4443C135.719 19.3434 135.841 19.293 136.004 19.293C136.166 19.293 136.288 19.3451 136.37 19.4492C136.454 19.5501 136.497 19.6722 136.497 19.8154ZM140.497 21.2168H141.356V26.5H140.497V22.6475L138.583 26.5H137.719V21.2168H138.583V25.0742L140.497 21.2168ZM141.005 19.293C141.005 19.6868 140.87 20.0042 140.6 20.2451C140.333 20.4827 139.981 20.6016 139.545 20.6016C139.109 20.6016 138.756 20.4811 138.485 20.2402C138.215 19.9993 138.08 19.6836 138.08 19.293H138.817C138.817 19.5208 138.879 19.6999 139.003 19.8301C139.127 19.957 139.307 20.0205 139.545 20.0205C139.773 20.0205 139.95 19.957 140.077 19.8301C140.207 19.7031 140.272 19.5241 140.272 19.293H141.005ZM146.299 26.5H145.44V24.2441H143.536V26.5H142.666V21.2168H143.536V23.5068H145.44V21.2168H146.299V26.5ZM150.383 21.2168H151.242V26.5H150.383V22.6475L148.469 26.5H147.604V21.2168H148.469V25.0742L150.383 21.2168ZM155.067 25.3037L156.483 21.2168H157.557V26.5H156.697V22.8574L155.364 26.5H154.774L153.411 22.7695V26.5H152.552V21.2168H153.665L155.067 25.3037ZM160.924 25.7627L161.183 25.3916C161.463 24.9619 161.624 24.3288 161.666 23.4922L161.739 21.2168H164.688V25.7627H165.304V28.0527H164.439V26.5H161.437V28.0527H160.567L160.572 25.7627H160.924ZM161.886 25.7627H163.829V22.0518H162.579L162.535 23.3408C162.49 24.3695 162.273 25.1768 161.886 25.7627ZM169.001 21.2168H169.861V26.5H169.001V22.6475L167.087 26.5H166.223V21.2168H167.087V25.0742L169.001 21.2168ZM174.818 21.2168V26.5H173.954V21.9639H172.562L172.479 23.7559C172.434 24.7487 172.3 25.4535 172.079 25.8701C171.858 26.2835 171.503 26.4935 171.014 26.5H170.726V25.7041L170.946 25.6846C171.187 25.652 171.356 25.4909 171.454 25.2012C171.555 24.9082 171.622 24.3337 171.654 23.4775L171.737 21.2168H174.818ZM177.93 26.5977C177.272 26.5977 176.768 26.4023 176.416 26.0117C176.065 25.6178 175.886 25.0417 175.879 24.2832V23.6436C175.879 22.8558 176.05 22.2389 176.392 21.793C176.737 21.3438 177.217 21.1191 177.832 21.1191C178.451 21.1191 178.913 21.3161 179.219 21.71C179.525 22.1038 179.681 22.7174 179.688 23.5508V24.1172H176.738V24.2393C176.738 24.8057 176.844 25.2174 177.056 25.4746C177.271 25.7318 177.578 25.8604 177.979 25.8604C178.233 25.8604 178.456 25.8132 178.648 25.7188C178.843 25.6211 179.025 25.4681 179.195 25.2598L179.644 25.8066C179.269 26.334 178.698 26.5977 177.93 26.5977ZM177.832 21.8613C177.474 21.8613 177.209 21.985 177.036 22.2324C176.864 22.4766 176.766 22.8574 176.743 23.375H178.823V23.2578C178.801 22.7565 178.71 22.3984 178.55 22.1836C178.394 21.9688 178.154 21.8613 177.832 21.8613ZM184.396 24.1123C184.396 24.9489 184.245 25.5723 183.942 25.9824C183.643 26.3926 183.218 26.5977 182.668 26.5977C182.137 26.5977 181.728 26.3975 181.442 25.9971V28.5312H180.583V21.2168H181.364L181.408 21.8027C181.698 21.347 182.113 21.1191 182.653 21.1191C183.232 21.1191 183.665 21.321 183.952 21.7246C184.238 22.1283 184.386 22.7321 184.396 23.5361V24.1123ZM183.537 23.6191C183.537 23.0267 183.446 22.5905 183.263 22.3105C183.081 22.0273 182.788 21.8857 182.384 21.8857C181.971 21.8857 181.657 22.0924 181.442 22.5059V25.2549C181.654 25.6585 181.971 25.8604 182.394 25.8604C182.785 25.8604 183.071 25.7204 183.254 25.4404C183.439 25.1572 183.533 24.7259 183.537 24.1465V23.6191ZM185.179 23.6143C185.179 22.846 185.364 22.2389 185.735 21.793C186.11 21.3438 186.603 21.1191 187.215 21.1191C187.827 21.1191 188.318 21.3372 188.689 21.7734C189.064 22.2096 189.256 22.8037 189.266 23.5557V24.1123C189.266 24.8773 189.08 25.4827 188.709 25.9287C188.338 26.3747 187.843 26.5977 187.225 26.5977C186.613 26.5977 186.121 26.3812 185.75 25.9482C185.382 25.5153 185.192 24.9294 185.179 24.1904V23.6143ZM186.043 24.1123C186.043 24.6559 186.149 25.084 186.36 25.3965C186.575 25.7057 186.863 25.8604 187.225 25.8604C187.986 25.8604 188.379 25.3102 188.401 24.21V23.6143C188.401 23.0739 188.294 22.6475 188.079 22.335C187.864 22.0192 187.576 21.8613 187.215 21.8613C186.86 21.8613 186.575 22.0192 186.36 22.335C186.149 22.6475 186.043 23.0723 186.043 23.6094V24.1123ZM192.822 25.3037L194.238 21.2168H195.312V26.5H194.453V22.8574L193.12 26.5H192.529L191.166 22.7695V26.5H190.307V21.2168H191.42L192.822 25.3037ZM199.343 18.9072L199.831 19.2588C199.574 19.682 199.441 20.1247 199.431 20.5869V21.2607H198.576V20.6943C198.576 20.3656 198.648 20.0368 198.791 19.708C198.934 19.376 199.118 19.109 199.343 18.9072ZM200.735 18.9072L201.223 19.2588C200.966 19.682 200.832 20.1247 200.822 20.5869V21.2607H199.968V20.6943C199.968 20.3656 200.04 20.0368 200.183 19.708C200.326 19.376 200.51 19.109 200.735 18.9072ZM208.519 23.5703C208.519 24.5404 208.312 25.2874 207.899 25.8115C207.486 26.3356 206.898 26.5977 206.136 26.5977C205.404 26.5977 204.824 26.3438 204.398 25.8359C203.975 25.3249 203.755 24.6038 203.739 23.6729V23.3896H202.938V26.5H202.045V19.3906H202.938V22.6523H203.739V22.291C203.742 21.6693 203.84 21.1322 204.032 20.6797C204.224 20.2272 204.497 19.8838 204.852 19.6494C205.21 19.4118 205.635 19.293 206.127 19.293C206.875 19.293 207.458 19.5518 207.875 20.0693C208.295 20.5837 208.509 21.3193 208.519 22.2764V23.5703ZM207.626 22.3252C207.626 21.5732 207.502 21.015 207.254 20.6504C207.01 20.2826 206.634 20.0986 206.127 20.0986C205.635 20.0986 205.262 20.2842 205.008 20.6553C204.758 21.0264 204.631 21.5732 204.628 22.2959V23.5703C204.628 24.2962 204.753 24.8496 205.004 25.2305C205.257 25.6113 205.635 25.8018 206.136 25.8018C206.638 25.8018 207.009 25.626 207.25 25.2744C207.49 24.9229 207.616 24.3841 207.626 23.6582V22.3252ZM213.203 24.1123C213.203 24.9489 213.052 25.5723 212.749 25.9824C212.45 26.3926 212.025 26.5977 211.475 26.5977C210.944 26.5977 210.535 26.3975 210.249 25.9971V28.5312H209.39V21.2168H210.171L210.215 21.8027C210.505 21.347 210.92 21.1191 211.46 21.1191C212.039 21.1191 212.472 21.321 212.759 21.7246C213.045 22.1283 213.193 22.7321 213.203 23.5361V24.1123ZM212.344 23.6191C212.344 23.0267 212.253 22.5905 212.07 22.3105C211.888 22.0273 211.595 21.8857 211.191 21.8857C210.778 21.8857 210.464 22.0924 210.249 22.5059V25.2549C210.461 25.6585 210.778 25.8604 211.201 25.8604C211.592 25.8604 211.878 25.7204 212.061 25.4404C212.246 25.1572 212.34 24.7259 212.344 24.1465V23.6191ZM213.986 23.6143C213.986 22.846 214.171 22.2389 214.542 21.793C214.917 21.3438 215.41 21.1191 216.022 21.1191C216.634 21.1191 217.125 21.3372 217.496 21.7734C217.871 22.2096 218.063 22.8037 218.073 23.5557V24.1123C218.073 24.8773 217.887 25.4827 217.516 25.9287C217.145 26.3747 216.65 26.5977 216.032 26.5977C215.42 26.5977 214.928 26.3812 214.557 25.9482C214.189 25.5153 213.999 24.9294 213.986 24.1904V23.6143ZM214.85 24.1123C214.85 24.6559 214.956 25.084 215.167 25.3965C215.382 25.7057 215.67 25.8604 216.032 25.8604C216.793 25.8604 217.186 25.3102 217.208 24.21V23.6143C217.208 23.0739 217.101 22.6475 216.886 22.335C216.671 22.0192 216.383 21.8613 216.022 21.8613C215.667 21.8613 215.382 22.0192 215.167 22.335C214.956 22.6475 214.85 23.0723 214.85 23.6094V24.1123ZM221.629 25.3037L223.045 21.2168H224.119V26.5H223.26V22.8574L221.927 26.5H221.336L219.973 22.7695V26.5H219.114V21.2168H220.227L221.629 25.3037ZM228.071 26.5C228.018 26.3861 227.981 26.194 227.958 25.9238C227.652 26.373 227.262 26.5977 226.786 26.5977C226.308 26.5977 225.933 26.4642 225.663 26.1973C225.396 25.9271 225.263 25.5479 225.263 25.0596C225.263 24.5225 225.445 24.096 225.81 23.7803C226.174 23.4645 226.674 23.3034 227.309 23.2969H227.944V22.7354C227.944 22.4196 227.874 22.195 227.734 22.0615C227.594 21.9281 227.38 21.8613 227.094 21.8613C226.834 21.8613 226.622 21.9395 226.459 22.0957C226.296 22.2487 226.215 22.444 226.215 22.6816H225.351C225.351 22.4115 225.431 22.1543 225.59 21.9102C225.75 21.6628 225.964 21.4691 226.235 21.3291C226.505 21.1891 226.806 21.1191 227.138 21.1191C227.678 21.1191 228.088 21.2542 228.368 21.5244C228.652 21.7913 228.796 22.182 228.803 22.6963V25.3623C228.806 25.7692 228.862 26.1224 228.969 26.4219V26.5H228.071ZM226.918 25.8115C227.13 25.8115 227.332 25.7529 227.524 25.6357C227.716 25.5186 227.856 25.3721 227.944 25.1963V23.9365H227.455C227.045 23.943 226.721 24.0358 226.484 24.2148C226.246 24.3906 226.127 24.638 226.127 24.957C226.127 25.2565 226.187 25.4746 226.308 25.6113C226.428 25.7448 226.632 25.8115 226.918 25.8115ZM230.943 21.2168V25.7627H232.432V21.2168H233.292V25.7627H234.786V21.2168H235.65V26.5H230.074V21.2168H230.943ZM237.058 21.3926L236.574 21.041C236.828 20.6146 236.96 20.1719 236.97 19.7129V19H237.824V19.6592C237.818 19.9717 237.744 20.2891 237.604 20.6113C237.468 20.9303 237.285 21.1908 237.058 21.3926ZM238.415 21.3926L237.932 21.041C238.186 20.6146 238.317 20.1719 238.327 19.7129V19H239.182V19.6592C239.175 19.9717 239.102 20.2891 238.962 20.6113C238.825 20.9303 238.643 21.1908 238.415 21.3926Z" fill="#0257A3"/>
<defs>
<clipPath id="clip0_985_1220">
<rect width="105.449" height="25.9103" fill="white" transform="translate(0 0.705078)"/>
</clipPath>
</defs>
</svg>
