<svg width="135" height="30" viewBox="0 0 135 30" fill="none" xmlns="http://www.w3.org/2000/svg">
<g clip-path="url(#clip0_515_777)">
<path d="M20.722 3.75H8.22766L5.07867 9.27083H23.7694L20.722 3.75ZM23.7694 9.27083L14.424 25.9375H20.6204L26.9184 14.7917L23.7694 9.27083ZM1.92969 14.7917L8.22766 25.9375H14.424L5.07867 9.27083L1.92969 14.7917Z" fill="white"/>
<path d="M26.4108 0H2.43792C1.11738 0 0 1.14583 0 2.5V27.0833C0 28.4375 1.11738 29.5833 2.43792 29.5833H26.4108C27.7314 29.5833 28.8488 28.4375 28.8488 27.0833V2.5C28.8488 1.14583 27.7314 0 26.4108 0ZM8.22799 3.75H20.7223L23.8713 9.27083H5.07901L8.22799 3.75ZM8.22799 25.9375L1.93002 14.7917L5.07901 9.27083L14.4244 25.9375H8.22799ZM20.7223 25.9375H14.526L23.8713 9.27083L27.0203 14.7917L20.7223 25.9375Z" fill="#00479D"/>
<path d="M121.389 14.2709L120.069 20.5209H125.046C124.03 21.4584 122.608 22.0834 121.084 22.0834C118.647 22.0834 116.615 19.7917 116.615 16.9792C116.615 13.6459 119.053 11.0417 121.897 11.0417C123.522 11.0417 124.945 11.8751 125.859 13.0209L133.68 9.79175C132.563 5.83341 127.789 2.91675 121.999 2.91675C113.771 2.91675 107.066 9.47925 107.066 17.5001C107.066 24.3751 112.958 30.0001 120.272 30.0001C125.757 30.0001 129.008 28.1251 131.649 25.3126C133.68 23.1251 135.61 18.7501 134.595 14.2709H121.389Z" fill="#00479D"/>
<path d="M99.854 3.64575L93.1497 16.4583L91.7276 3.64575H83.0933L74.459 29.4791H83.0933L86.547 19.0624L87.766 29.4791H93.3529L98.9398 18.8541L98.3303 29.4791H106.66L108.285 3.64575H99.854Z" fill="#00479D"/>
<path d="M37.9918 3.646H35.4523L41.9534 15.6252L28.9512 29.4793H31.897L44.5945 16.0418L37.9918 3.646ZM56.1746 3.646H53.2288L49.3688 7.81266L47.134 3.646H39.3123L45.5087 15.1043L56.1746 3.646ZM33.4207 29.4793H42.3597L46.8293 24.7918L49.3688 29.4793H51.9083L45.204 17.0835L33.4207 29.4793ZM53.9399 18.5418C53.9399 11.9793 58.1047 6.25016 64.1995 3.646H57.6983L45.9151 16.146L53.1272 29.4793H60.441C56.581 27.396 53.9399 23.3335 53.9399 18.5418Z" fill="#00479D"/>
<path d="M74.9661 20.9376C73.7472 21.2501 72.3251 21.4584 70.9029 21.4584C68.6682 21.4584 66.8397 19.5834 66.8397 17.2917C66.8397 14.1667 69.5824 11.5626 72.9345 11.5626C74.763 11.5626 76.3883 11.8751 77.8104 12.3959L80.6546 4.06258C78.623 3.33341 76.3883 2.91675 74.0519 2.91675C64.1986 2.91675 56.2754 9.89591 56.2754 18.5417C56.2754 21.3542 57.2912 24.1668 59.4244 26.2501C62.5734 29.4793 67.246 30.5209 72.2235 29.4792L74.9661 20.9376Z" fill="#00479D"/>
</g>
<defs>
<clipPath id="clip0_515_777">
<rect width="135" height="30" fill="white"/>
</clipPath>
</defs>
</svg>
