<svg width="29" height="30" viewBox="0 0 29 30" fill="none" xmlns="http://www.w3.org/2000/svg">
<g clip-path="url(#clip0_714_1218)">
<path fill-rule="evenodd" clip-rule="evenodd" d="M14.5 0.380127C6.3308 0.380127 0 6.36413 0 14.4459C0 18.6736 1.73291 22.326 4.55439 24.8501C4.79092 25.0633 4.93393 25.358 4.94534 25.6755L5.02419 28.2546C5.05029 29.0773 5.89961 29.6112 6.65215 29.2817L9.52856 28.0126C9.77378 27.9044 10.0451 27.8843 10.3018 27.9544C11.6236 28.3193 13.0324 28.5118 14.5 28.5118C22.6692 28.5118 29 22.5277 29 14.4459C29 6.36413 22.6692 0.380127 14.5 0.380127Z" fill="url(#paint0_linear_714_1218)"/>
<path fill-rule="evenodd" clip-rule="evenodd" d="M5.79468 18.5594L10.0544 11.8022C10.7313 10.7283 12.1842 10.4602 13.1994 11.2215L16.5863 13.7624C16.8985 13.9957 17.3242 13.993 17.6336 13.7597L22.2081 10.2879C22.8176 9.82403 23.6175 10.5565 23.2059 11.2041L18.9495 17.958C18.2725 19.0319 16.8196 19.3 15.8044 18.5388L12.4175 15.9978C12.1054 15.7645 11.6796 15.7673 11.3702 16.0005L6.79245 19.4751C6.18291 19.9389 5.38306 19.2065 5.79468 18.5589V18.5594Z" fill="white"/>
</g>
<defs>
<linearGradient id="paint0_linear_714_1218" x1="14.6436" y1="0.366033" x2="14.6436" y2="29.5523" gradientUnits="userSpaceOnUse">
<stop stop-color="#00B2FF"/>
<stop offset="1" stop-color="#006AFF"/>
</linearGradient>
<clipPath id="clip0_714_1218">
<rect width="29" height="29" fill="white" transform="translate(0 0.380127)"/>
</clipPath>
</defs>
</svg>
