<svg width="9" height="12" viewBox="0 0 9 12" fill="none" xmlns="http://www.w3.org/2000/svg">
<path d="M4.69367 11.5856C3.90332 11.5856 3.23455 11.4792 2.68739 11.2664C2.14022 11.0536 1.71972 10.7395 1.42587 10.324C1.14216 9.89847 1.00029 9.36143 1.00029 8.71294C1.00029 8.52042 1.01549 8.33803 1.04589 8.16577C1.07628 7.98338 1.11682 7.81619 1.16749 7.6642H0.453125V6.69146H1.72985C1.93251 6.48881 2.20102 6.30642 2.5354 6.1443C2.87991 5.97204 3.23455 5.82005 3.59933 5.68832C3.97424 5.5566 4.30355 5.44514 4.58727 5.35394C4.87099 5.25262 5.05338 5.18169 5.13444 5.14116H0.453125V4.16842H6.25918C6.34024 4.02656 6.39597 3.87963 6.42636 3.72764C6.4669 3.57565 6.48715 3.38313 6.48715 3.15008C6.48715 2.83596 6.41622 2.56745 6.27437 2.34453C6.13251 2.11147 5.91465 1.93415 5.62081 1.81256C5.32696 1.69097 4.94699 1.63017 4.48088 1.63017C4.1465 1.63017 3.82225 1.66057 3.50814 1.72136C3.20415 1.78216 2.91537 1.86322 2.64179 1.96455C2.37834 2.05574 2.1301 2.15707 1.89704 2.26853L1.51706 1.0678C1.9021 0.885415 2.37328 0.733425 2.93058 0.611833C3.48788 0.49024 4.02997 0.429443 4.55687 0.429443C5.2459 0.429443 5.83359 0.525704 6.31997 0.718226C6.81647 0.900615 7.19645 1.17926 7.4599 1.55417C7.73348 1.92909 7.87027 2.40532 7.87027 2.98289C7.87027 3.19567 7.85507 3.40846 7.82467 3.62125C7.79427 3.8239 7.73854 4.00629 7.65748 4.16842H8.49344V5.14116H7.17112C7.009 5.30328 6.75567 5.47047 6.41116 5.64273C6.06665 5.80485 5.70694 5.95684 5.33203 6.0987C4.95712 6.24056 4.61768 6.36215 4.31369 6.46348C4.00971 6.5648 3.81212 6.6408 3.72092 6.69146H8.49344V7.6642H2.581C2.49994 7.81619 2.44421 7.95805 2.41381 8.08978C2.38341 8.2215 2.36821 8.40389 2.36821 8.63694C2.36821 9.03212 2.4594 9.36143 2.64179 9.62488C2.82418 9.8782 3.09776 10.0707 3.46254 10.2024C3.82732 10.3342 4.27822 10.4 4.81526 10.4C5.39282 10.4 5.95012 10.3291 6.48715 10.1872C7.03432 10.0353 7.4903 9.8782 7.85508 9.71608V10.9472C7.51057 11.1093 7.04953 11.2562 6.47196 11.388C5.8944 11.5197 5.30163 11.5856 4.69367 11.5856Z" fill="#232323"/>
</svg>
