<svg width="22" height="23" viewBox="0 0 22 23" fill="none" xmlns="http://www.w3.org/2000/svg">
<path d="M1.11579 16.0119V19.0119C1.11466 19.2904 1.17171 19.5661 1.28328 19.8212C1.39485 20.0764 1.55849 20.3055 1.76371 20.4938C1.96893 20.682 2.21122 20.8254 2.47504 20.9146C2.73887 21.0038 3.01842 21.037 3.29579 21.0119C6.37296 20.6775 9.32879 19.626 11.9258 17.9419C14.342 16.4066 16.3905 14.3581 17.9258 11.9419C19.6158 9.3331 20.6675 6.36289 20.9958 3.27189C21.0208 2.99536 20.9879 2.71665 20.8993 2.45352C20.8107 2.19038 20.6682 1.94858 20.481 1.74351C20.2938 1.53845 20.066 1.3746 19.812 1.26242C19.558 1.15023 19.2834 1.09216 19.0058 1.09189H16.0058C15.5205 1.08712 15.05 1.25897 14.682 1.57543C14.3141 1.89188 14.0737 2.33134 14.0058 2.81189C13.8792 3.77196 13.6443 4.71462 13.3058 5.62189C13.1712 5.97982 13.1421 6.36881 13.2219 6.74277C13.3016 7.11674 13.4869 7.46 13.7558 7.73189L15.0258 9.00189C13.6022 11.5054 11.5293 13.5783 9.02579 15.0019L7.75579 13.7319C7.4839 13.463 7.14064 13.2777 6.76667 13.198C6.3927 13.1182 6.00371 13.1474 5.64579 13.2819C4.73852 13.6204 3.79586 13.8553 2.83579 13.9819C2.35002 14.0504 1.90639 14.2951 1.58926 14.6694C1.27212 15.0437 1.10362 15.5215 1.11579 16.0119Z" stroke="#232323" stroke-width="2" stroke-linecap="round" stroke-linejoin="round"/>
</svg>
