<svg width="29" height="30" viewBox="0 0 29 30" fill="none" xmlns="http://www.w3.org/2000/svg">
<path d="M14.3672 29.3914C22.302 29.3914 28.7344 22.959 28.7344 15.0242C28.7344 7.0894 22.302 0.656982 14.3672 0.656982C6.43242 0.656982 0 7.0894 0 15.0242C0 22.959 6.43242 29.3914 14.3672 29.3914Z" fill="url(#paint0_linear_714_1242)"/>
<path d="M5.97869 14.8994L15.6538 10.9131C16.609 10.4977 19.8476 9.16912 19.8476 9.16912C19.8476 9.16912 21.3426 8.5878 21.2176 9.99936C21.1761 10.5807 20.8437 12.6151 20.5118 14.8159L19.4736 21.3349C19.4736 21.3349 19.3907 22.2902 18.6849 22.4561C17.9791 22.6221 16.8165 21.8748 16.6085 21.7088C16.4426 21.5844 13.4944 19.716 12.4148 18.8022C12.1244 18.5533 11.792 18.055 12.4563 17.4736C13.9513 16.1036 15.7368 14.4011 16.8159 13.3214C17.3143 12.823 17.8126 11.6604 15.7362 13.0725L9.8815 17.0173C9.8815 17.0173 9.2172 17.4327 7.97158 17.0588C6.72596 16.6849 5.27237 16.1871 5.27237 16.1871C5.27237 16.1871 4.27566 15.5642 5.97815 14.9L5.97869 14.8994Z" fill="white"/>
<defs>
<linearGradient id="paint0_linear_714_1242" x1="18.4855" y1="5.07829" x2="11.2993" y2="21.8475" gradientUnits="userSpaceOnUse">
<stop stop-color="#37AEE2"/>
<stop offset="1" stop-color="#1E96C8"/>
</linearGradient>
</defs>
</svg>
