<svg width="32" height="34" viewBox="0 0 32 34" fill="none" xmlns="http://www.w3.org/2000/svg">
<g clip-path="url(#clip0_714_1221)">
<path d="M28.0919 4.12768L28.0919 4.12772L28.0948 4.13026C30.715 6.40099 32.1976 11.4786 31.2034 19.5845C30.7254 23.4866 29.0202 25.6133 27.3149 26.8095C25.9123 27.7935 24.511 28.1504 23.7499 28.3443C23.581 28.3874 23.4436 28.4224 23.3447 28.4544L23.3445 28.4545C22.9057 28.5972 18.9297 29.5932 13.7564 29.1579L13.6928 29.1526L13.6511 29.201C13.0786 29.867 12.3198 30.7371 11.7708 31.3285C11.6034 31.5087 11.4456 31.6881 11.2961 31.858C11.2208 31.9436 11.1476 32.0267 11.0764 32.1064C10.8617 32.3466 10.6627 32.5573 10.4646 32.7237C10.2667 32.8898 10.075 33.0071 9.87622 33.0655C9.67973 33.1232 9.46939 33.1255 9.22915 33.0509L9.22901 33.0509C8.8574 32.9359 8.66989 32.5931 8.57706 32.2434C8.53143 32.0715 8.51126 31.9064 8.5026 31.7837C8.49829 31.7226 8.49688 31.6725 8.49653 31.6381C8.49636 31.6209 8.49645 31.6076 8.49658 31.5989L8.49677 31.5892L8.49683 31.5871L8.49684 31.5868L8.49692 31.5868L8.49692 31.5823L8.50178 28.3242L8.50196 28.199H8.38679C4.65042 27.1422 2.81143 24.6796 1.91274 21.954C1.01007 19.2164 1.05794 16.218 1.10105 14.1148C1.18696 9.92416 1.99955 6.57663 4.27944 4.29472C6.33004 2.4153 9.46968 1.59437 12.1163 1.24692C13.437 1.07353 14.6287 1.01881 15.4902 1.00747C15.9209 1.0018 16.2688 1.00697 16.5087 1.01354C16.6287 1.01682 16.7217 1.02046 16.7845 1.02327C16.816 1.02467 16.8398 1.02586 16.8558 1.0267L16.8737 1.02768L16.8781 1.02793L16.8792 1.02799L16.8794 1.02801L16.887 0.903236L16.8794 1.0282L16.8864 1.02823C24.0946 1.06026 27.3123 3.40857 28.0919 4.12768Z" fill="white" stroke="#DADADA" stroke-width="0.25"/>
<path d="M26.4879 5.67541C25.8085 5.05787 22.8743 3.21437 16.753 3.18768C16.753 3.18768 9.50391 2.71149 5.98494 5.89864C4.02618 7.83253 3.36679 10.7079 3.2946 14.2171C3.22242 17.7264 2.84753 24.4301 9.26612 26.2129C9.26612 26.2129 9.24064 31.1896 9.23821 31.627C9.23821 31.9327 9.28674 32.142 9.46145 32.1851C9.58701 32.2154 9.77567 32.1505 9.93582 31.9909C10.9622 30.9603 14.2482 26.9961 14.2482 26.9961C18.6571 27.2842 22.1646 26.4137 22.5419 26.29C23.4312 26.0043 28.2422 25.5912 29.0563 19.0143C29.8977 12.2353 28.7469 7.60808 26.4885 5.67419L26.4879 5.67541Z" fill="#7360F2"/>
<path d="M19.8644 14.3379C19.6479 14.3379 19.4671 14.1674 19.4562 13.949C19.387 12.5581 18.7331 11.8781 17.3979 11.8083C17.1723 11.7968 16.9988 11.6039 17.0103 11.3782C17.0218 11.1525 17.2129 10.9803 17.4404 10.9906C19.2038 11.0828 20.1835 12.0916 20.2739 13.9078C20.2848 14.1335 20.1113 14.3257 19.8857 14.3367C19.879 14.3367 19.8717 14.3367 19.865 14.3367L19.8644 14.3379Z" fill="white"/>
<path d="M21.9652 15.0421C21.9652 15.0421 21.9591 15.0421 21.9561 15.0421C21.7304 15.0373 21.5508 14.8498 21.5557 14.6242C21.586 13.2253 21.1863 12.0928 20.334 11.1616C19.4829 10.2323 18.3164 9.72577 16.7683 9.61234C16.5426 9.59596 16.3734 9.39941 16.3898 9.17436C16.4061 8.9487 16.6027 8.77946 16.8277 8.79583C18.5693 8.92322 19.9524 9.53348 20.9376 10.609C21.9251 11.6882 22.4086 13.0452 22.374 14.6424C22.3692 14.8656 22.1872 15.0428 21.9652 15.0428V15.0421Z" fill="white"/>
<path d="M24.1157 15.8829C23.8912 15.8829 23.7081 15.7015 23.7062 15.4765C23.6874 13.0069 22.9461 11.0421 21.5036 9.63539C20.0581 8.22622 18.2315 7.50435 16.0744 7.48918C15.8481 7.48736 15.6662 7.30295 15.668 7.07729C15.6698 6.85163 15.8536 6.66843 16.0799 6.67086C18.4554 6.68724 20.4724 7.48736 22.0744 9.0494C23.6795 10.6139 24.5033 12.774 24.5239 15.4704C24.5258 15.6967 24.3438 15.8811 24.1175 15.8829C24.1163 15.8829 24.1151 15.8829 24.1145 15.8829H24.1157Z" fill="white"/>
<path d="M16.8806 19.3061C16.8806 19.3061 17.4339 19.3455 17.7105 18.99L18.2637 18.2784C18.5403 17.923 19.173 17.6858 19.8446 18.0413C20.2 18.239 20.8327 18.6339 21.2276 18.9506C21.6626 19.2666 22.5319 19.9782 22.5319 19.9782C22.9668 20.3337 23.0457 20.8475 22.769 21.4013C22.4924 21.9151 22.0969 22.3895 21.5831 22.8244C21.1876 23.1799 20.7927 23.3382 20.3972 23.4171H20.2388C20.0805 23.4171 19.8834 23.3776 19.725 23.3382C19.1324 23.1799 18.1442 22.7456 16.4445 21.8362C15.3774 21.2436 14.4681 20.6109 13.7171 20.0182C13.3216 19.7022 12.8873 19.3461 12.4918 18.9118L12.3335 18.7534C11.8985 18.3185 11.543 17.9236 11.227 17.5281C10.6343 16.7771 10.0016 15.8684 9.40896 14.8007C8.49965 13.141 8.06531 12.1529 7.90698 11.5202C7.86755 11.3618 7.82812 11.2041 7.82812 11.0063V10.848C7.86755 10.4525 8.06531 10.0576 8.42079 9.66209C8.85573 9.18772 9.3301 8.79281 9.8439 8.47616C10.3971 8.19954 10.9109 8.2784 11.267 8.71335C11.267 8.71335 11.9786 9.58263 12.2946 10.0176C12.5712 10.4131 12.9668 11.0452 13.2039 11.4006C13.5594 12.0327 13.3222 12.7049 13.0062 12.9815L12.2946 13.5347C11.9392 13.8113 11.9786 14.3646 11.9786 14.3646C11.9786 14.3646 12.9668 18.2772 16.8794 19.3048L16.8806 19.3061Z" fill="white"/>
</g>
<defs>
<clipPath id="clip0_714_1221">
<rect width="30.6826" height="32.3526" fill="white" transform="translate(0.957031 0.880127)"/>
</clipPath>
</defs>
</svg>
