<svg width="31" height="24" viewBox="0 0 31 24" fill="none" xmlns="http://www.w3.org/2000/svg">
<path d="M15.2314 22.9997C21.2887 22.9997 26.1992 18.0893 26.1992 12.0319C26.1992 5.97463 21.2887 1.06421 15.2314 1.06421C9.1741 1.06421 4.26367 5.97463 4.26367 12.0319C4.26367 18.0893 9.1741 22.9997 15.2314 22.9997Z" stroke="white" stroke-width="1.5" stroke-linecap="round" stroke-linejoin="round"/>
<path d="M15.1445 23.001L15.1434 2.16107" stroke="white" stroke-width="1.5" stroke-linecap="round" stroke-linejoin="round"/>
<path d="M15.4258 23.001L15.4269 2.16107" stroke="white" stroke-width="1.5" stroke-linecap="round" stroke-linejoin="round"/>
<path d="M19.1016 22.1772V22.1772C21.9234 16.0223 21.9994 9.12805 19.3139 2.92411L19.1028 2.43642" stroke="white" stroke-width="1.5" stroke-linecap="round" stroke-linejoin="round"/>
<path d="M11.4687 22.177V22.177C8.64696 16.0221 8.57092 9.1278 11.2564 2.92387L11.4675 2.43617" stroke="white" stroke-width="1.5" stroke-linecap="round" stroke-linejoin="round"/>
<path d="M4.86523 8.7417H25.7039" stroke="white" stroke-width="1.5"/>
<path d="M4.86523 15.3223H25.7039" stroke="white" stroke-width="1.5"/>
</svg>
