<svg width="32" height="32" viewBox="0 0 32 32" fill="none" xmlns="http://www.w3.org/2000/svg">
<g filter="url(#filter0_d_714_1235)">
<path d="M1.82888 15.7698C1.82767 18.2978 2.48678 20.7661 3.73873 22.9411L1.70898 30.3744L9.29537 28.3796C11.3854 29.5225 13.7392 30.125 16.1341 30.1256H16.1401C24.0271 30.1256 30.4477 23.6899 30.4508 15.7812C30.452 11.9483 28.965 8.34425 26.2629 5.6331C23.5614 2.92195 19.9683 1.42841 16.1401 1.42661C8.25188 1.42661 1.83249 7.86106 1.82888 15.7698Z" fill="white"/>
<path d="M1.82888 15.7698C1.82767 18.2978 2.48678 20.7661 3.73873 22.9411L1.70898 30.3744L9.29537 28.3796C11.3854 29.5225 13.7392 30.125 16.1341 30.1256H16.1401C24.0271 30.1256 30.4477 23.6899 30.4508 15.7812C30.452 11.9483 28.965 8.34425 26.2629 5.6331C23.5614 2.92195 19.9683 1.42841 16.1401 1.42661C8.25188 1.42661 1.83249 7.86106 1.82888 15.7698Z" fill="white"/>
<path d="M2.34164 15.6217C2.34103 18.0533 2.97604 20.4276 4.18461 22.52L2.22656 29.6702L9.54364 27.7513C11.5595 28.8503 13.8297 29.4298 16.1396 29.4311H16.1456C23.7525 29.4311 29.9453 23.2406 29.9483 15.6319C29.9501 11.9448 28.515 8.47811 25.9093 5.86999C23.303 3.26187 19.8376 1.82496 16.145 1.82315C8.53691 1.82315 2.34465 8.013 2.34164 15.6217Z" fill="url(#paint0_linear_714_1235)"/>
<path d="M1.85036 15.6164C1.84916 18.1354 2.50766 20.5947 3.75901 22.7624L1.73047 30.1686L9.31023 28.1811C11.3984 29.3197 13.7499 29.9204 16.1429 29.921H16.1489C24.0293 29.921 30.4439 23.5083 30.4475 15.6273C30.4487 11.8075 28.963 8.21618 26.2633 5.51467C23.5636 2.81377 19.9735 1.32505 16.1489 1.32324C8.26734 1.32324 1.85337 7.7354 1.85036 15.6164ZM6.36412 22.3895L6.08096 21.94C4.89106 20.0482 4.26328 17.8624 4.26449 15.6176C4.2669 9.06688 9.59822 3.73797 16.1532 3.73797C19.3276 3.73918 22.3111 4.97666 24.5553 7.2221C26.7989 9.46753 28.034 12.4528 28.0328 15.6273C28.0298 22.178 22.6991 27.5081 16.1489 27.5081H16.1441C14.0114 27.5069 11.9196 26.9345 10.0953 25.8519L9.66087 25.5946L5.16278 26.7737L6.36412 22.3895Z" fill="url(#paint1_linear_714_1235)"/>
<path fill-rule="evenodd" clip-rule="evenodd" d="M12.5761 9.64158C12.3086 9.04693 12.0267 9.03488 11.7724 9.02404C11.564 9.015 11.326 9.0156 11.088 9.0156C10.85 9.0156 10.4627 9.10477 10.1355 9.46264C9.80776 9.81991 8.88477 10.6845 8.88477 12.4419C8.88477 14.1993 10.165 15.8983 10.3434 16.1369C10.5217 16.3749 12.8147 20.0976 16.4465 21.5297C19.4643 22.7195 20.0788 22.4828 20.7337 22.4237C21.3886 22.3641 22.8472 21.5598 23.1454 20.7253C23.443 19.8909 23.443 19.1764 23.3539 19.027C23.2647 18.8782 23.0261 18.789 22.6688 18.61C22.3116 18.4311 20.5553 17.5672 20.2276 17.4479C19.8999 17.3286 19.6619 17.2695 19.4239 17.6268C19.1859 17.9841 18.5015 18.7884 18.293 19.027C18.0846 19.2655 17.8761 19.2957 17.5189 19.1167C17.1616 18.9378 16.0109 18.5606 14.6457 17.3436C13.5835 16.3965 12.8665 15.2271 12.6581 14.8699C12.4496 14.5126 12.6358 14.3192 12.8147 14.1409C12.975 13.9806 13.172 13.724 13.3509 13.5155C13.5293 13.307 13.5889 13.1582 13.7076 12.9197C13.8269 12.6811 13.7672 12.4726 13.6781 12.2937C13.5889 12.1147 12.8942 10.3483 12.5767 9.64158" fill="white"/>
</g>
<defs>
<filter id="filter0_d_714_1235" x="0.908984" y="0.523242" width="30.3422" height="30.6512" filterUnits="userSpaceOnUse" color-interpolation-filters="sRGB">
<feFlood flood-opacity="0" result="BackgroundImageFix"/>
<feColorMatrix in="SourceAlpha" type="matrix" values="0 0 0 0 0 0 0 0 0 0 0 0 0 0 0 0 0 0 127 0" result="hardAlpha"/>
<feOffset/>
<feGaussianBlur stdDeviation="0.4"/>
<feComposite in2="hardAlpha" operator="out"/>
<feColorMatrix type="matrix" values="0 0 0 0 0 0 0 0 0 0 0 0 0 0 0 0 0 0 0.25 0"/>
<feBlend mode="normal" in2="BackgroundImageFix" result="effect1_dropShadow_714_1235"/>
<feBlend mode="normal" in="SourceGraphic" in2="effect1_dropShadow_714_1235" result="shape"/>
</filter>
<linearGradient id="paint0_linear_714_1235" x1="16.0801" y1="29.306" x2="16.0801" y2="1.63289" gradientUnits="userSpaceOnUse">
<stop stop-color="#20B038"/>
<stop offset="1" stop-color="#60D66A"/>
</linearGradient>
<linearGradient id="paint1_linear_714_1235" x1="16.0804" y1="29.8047" x2="16.0804" y2="1.1391" gradientUnits="userSpaceOnUse">
<stop stop-color="#F9F9F9"/>
<stop offset="1" stop-color="white"/>
</linearGradient>
</defs>
</svg>
