<svg width="31" height="22" viewBox="0 0 31 22" fill="none" xmlns="http://www.w3.org/2000/svg">
<path d="M29.1033 4.40455C28.9521 3.80055 28.6442 3.24715 28.2107 2.80024C27.7772 2.35332 27.2335 2.02872 26.6343 1.85922C24.4454 1.32471 15.6895 1.32471 15.6895 1.32471C15.6895 1.32471 6.93355 1.32471 4.74457 1.91013C4.14546 2.07963 3.60169 2.40423 3.16818 2.85114C2.73467 3.29806 2.42678 3.85146 2.2756 4.45545C1.87499 6.67695 1.67903 8.93052 1.69018 11.1878C1.6759 13.4621 1.87188 15.7329 2.2756 17.9711C2.44227 18.5563 2.75706 19.0887 3.18956 19.5167C3.62206 19.9448 4.15764 20.254 4.74457 20.4146C6.93355 21 15.6895 21 15.6895 21C15.6895 21 24.4454 21 26.6343 20.4146C27.2335 20.2451 27.7772 19.9205 28.2107 19.4736C28.6442 19.0267 28.9521 18.4733 29.1033 17.8693C29.5008 15.6645 29.6968 13.4281 29.6887 11.1878C29.703 8.91353 29.507 6.64277 29.1033 4.40455Z" stroke="white" stroke-width="1.5" stroke-linecap="round" stroke-linejoin="round"/>
<path d="M12.8242 15.3491L20.142 11.1875L12.8242 7.02588V15.3491Z" stroke="white" stroke-width="1.5" stroke-linecap="round" stroke-linejoin="round"/>
</svg>
